<svg xmlns="http://www.w3.org/2000/svg" viewBox="0 0 210.43 211.33"><defs><style>.cls-1{fill:#ffbc1a;}</style></defs><g id="Layer_2" data-name="Layer 2"><g id="Layer_1-2" data-name="Layer 1"><path class="cls-1" d="M99.92,195.61a2.29,2.29,0,0,1,2.25-1.85,2.33,2.33,0,0,1,1.12.29,2.75,2.75,0,0,1,.33.23v-.11h0c0-.1,0-.2,0-.3h0a1.73,1.73,0,0,1,0-.32,5.93,5.93,0,0,1,1.55-3.35,6,6,0,0,1,1.52,3.16,6.82,6.82,0,0,1,.07.9v0a2.09,2.09,0,0,1,.47-.3,2.29,2.29,0,0,1,3.23,1.63,2.33,2.33,0,0,0-1.5-.56,2.29,2.29,0,0,0-1.46.53,2.36,2.36,0,0,0-.78,1.31,2.19,2.19,0,0,1-.48.31l-.33.13a2.37,2.37,0,0,1-.65.09,2.21,2.21,0,0,1-.89-.18l-.24-.12a2.18,2.18,0,0,1-.58-.47,2.35,2.35,0,0,0-.47-.83,2.29,2.29,0,0,0-1.71-.77,2.33,2.33,0,0,0-1.5.56"/><path class="cls-1" d="M96.83,200.82a3.76,3.76,0,0,1,.44-1.76,3.64,3.64,0,0,1,.35-.52,2.27,2.27,0,0,0,2,2.26,1.72,1.72,0,0,0,.32,0,2.26,2.26,0,0,0,1.57-.62l.17-.18a2.21,2.21,0,0,0,.28-.4l0-.06-.23.05a1.41,1.41,0,0,1-1.19-1.4,1.57,1.57,0,0,1,.08-.49,1.38,1.38,0,0,1,.39-.56,1.34,1.34,0,0,1,.47-.28,1.5,1.5,0,0,1,.47-.08H102a.9.9,0,0,0-.21.45s0,.06,0,.09v0a.86.86,0,0,0,.36.71.85.85,0,0,0,.51.17.78.78,0,0,0,.22,0,.67.67,0,0,0,.18-.07h0a3.57,3.57,0,0,1,.27.28l0,.07a3.78,3.78,0,0,1,.54.88,3.53,3.53,0,0,1,.22.74,3.35,3.35,0,0,1,.07.71,2.26,2.26,0,0,1,0,.26,6.4,6.4,0,0,1,1-.6,6.79,6.79,0,0,1,1,.6,2.26,2.26,0,0,1,0-.26,3.35,3.35,0,0,1,.07-.71,3.53,3.53,0,0,1,.22-.74,3.78,3.78,0,0,1,.54-.88s0-.05.06-.07a3.45,3.45,0,0,1,.26-.28h0a.48.48,0,0,0,.18.07.66.66,0,0,0,.21,0,.85.85,0,0,0,.51-.17.86.86,0,0,0,.36-.71v0s0-.06,0-.09h0a.82.82,0,0,0-.21-.45h.06a1.5,1.5,0,0,1,.47.08,1.34,1.34,0,0,1,.47.28,1.38,1.38,0,0,1,.39.56,1.57,1.57,0,0,1,.08.49,1.41,1.41,0,0,1-1.19,1.4l-.23-.05,0,.06a2.21,2.21,0,0,0,.28.4l.17.18a2.26,2.26,0,0,0,1.57.62,1.67,1.67,0,0,0,.32,0,2.27,2.27,0,0,0,2-2.26,3.64,3.64,0,0,1,.35.52,3.76,3.76,0,0,1,.44,1.76,3.71,3.71,0,0,1-3.7,3.7,3.62,3.62,0,0,1-1.47-.31,6,6,0,0,1-3.21,7.12,6,6,0,0,1-3.22-7.12,3.62,3.62,0,0,1-1.47.31,3.71,3.71,0,0,1-3.7-3.7"/><path class="cls-1" d="M83.48,193.11A2.29,2.29,0,0,1,86,191.7a2.19,2.19,0,0,1,1,.5,1.92,1.92,0,0,1,.29.28v0s0,0,0-.08h0l.06-.29h0a2.81,2.81,0,0,1,.08-.31,5.94,5.94,0,0,1,2.14-3,6,6,0,0,1,.92,3.39,5.51,5.51,0,0,1-.1.9v0a1.67,1.67,0,0,1,.52-.21,2.14,2.14,0,0,1,1,0,2.28,2.28,0,0,1,1.86,2.23,2.29,2.29,0,0,0-3.91.57,1.91,1.91,0,0,1-.53.22,2,2,0,0,1-.35.06,2,2,0,0,1-.65,0,2.21,2.21,0,0,1-.84-.33l-.22-.16a2.6,2.6,0,0,1-.48-.57,2.4,2.4,0,0,0-.31-.91,2.31,2.31,0,0,0-3.12-.79"/><path class="cls-1" d="M79.49,197.66a3.63,3.63,0,0,1,.76-1.65,4.57,4.57,0,0,1,.43-.45,2.42,2.42,0,0,0,0,.89,2.29,2.29,0,0,0,1.5,1.69,1.92,1.92,0,0,0,.32.09,2.27,2.27,0,0,0,1.66-.33l.2-.14a2.73,2.73,0,0,0,.34-.34.1.1,0,0,1,0,0h-.23a1.4,1.4,0,0,1-.92-1.59,1.23,1.23,0,0,1,.18-.46,1.41,1.41,0,0,1,.48-.49,1.34,1.34,0,0,1,.52-.18,1.24,1.24,0,0,1,.47,0l.06,0a.9.9,0,0,0-.29.4.29.29,0,0,0,0,.09v0a.86.86,0,0,0,.23.76.81.81,0,0,0,.47.26.74.74,0,0,0,.21,0,.63.63,0,0,0,.19,0h0a3.45,3.45,0,0,1,.2.32.56.56,0,0,1,.05.08,4,4,0,0,1,.36,1,3.22,3.22,0,0,1,.09.76,3.51,3.51,0,0,1-.07.72,2.21,2.21,0,0,1,0,.25,5.92,5.92,0,0,1,1.09-.4,5.85,5.85,0,0,1,.88.77,2.34,2.34,0,0,1,0-.26,3.22,3.22,0,0,1,.2-.69,3.36,3.36,0,0,1,.35-.68,4.22,4.22,0,0,1,.69-.77l.07-.05a3.55,3.55,0,0,1,.31-.23l0,0a1,1,0,0,0,.17.1.66.66,0,0,0,.2.06.8.8,0,0,0,.53-.07.84.84,0,0,0,.49-.63v0a.28.28,0,0,0,0-.09h0a.78.78,0,0,0-.12-.48h.06a1.29,1.29,0,0,1,.44.16,1.34,1.34,0,0,1,.42.36,1.42,1.42,0,0,1,.27.63,1.4,1.4,0,0,1,0,.5,1.42,1.42,0,0,1-1.43,1.15l-.21-.08s0,0,0,.06a2.48,2.48,0,0,0,.2.44,2.39,2.39,0,0,0,.13.21,2.29,2.29,0,0,0,1.43.9l.32,0a2.31,2.31,0,0,0,2-1.05,2.21,2.21,0,0,0,.33-.82,4.17,4.17,0,0,1,.24.58,3.68,3.68,0,0,1,.11,1.81,3.64,3.64,0,0,1-1,2,3.69,3.69,0,0,1-4.67.42,5.87,5.87,0,0,1-.07,1.72,6,6,0,0,1-4.39,4.69,6,6,0,0,1-2.4-6,6.26,6.26,0,0,1,.55-1.63,3.65,3.65,0,0,1-1.51,0,3.67,3.67,0,0,1-3-4.31"/><path class="cls-1" d="M67.79,187.63a2.28,2.28,0,0,1,2.76-.92,2.24,2.24,0,0,1,.94.68,2.44,2.44,0,0,1,.23.33v0l0-.08h0l.12-.28h0c.05-.09.1-.19.14-.28a6,6,0,0,1,2.66-2.57A6,6,0,0,1,75,188a5.75,5.75,0,0,1-.26.87v0a2.55,2.55,0,0,1,.55-.11,2.32,2.32,0,0,1,1,.15,2.28,2.28,0,0,1,1.42,2.54,2.3,2.3,0,0,0-1.19-1.06,2.31,2.31,0,0,0-2.76.9,2.66,2.66,0,0,1-.56.12H72.8a2,2,0,0,1-.64-.14,2.21,2.21,0,0,1-.76-.49,1.8,1.8,0,0,1-.19-.2,2.2,2.2,0,0,1-.37-.65,2.31,2.31,0,0,0-.14-.94,2.29,2.29,0,0,0-2.91-1.35"/><path class="cls-1" d="M63,191.37a3.63,3.63,0,0,1,1-1.48,3.68,3.68,0,0,1,.51-.37,2.22,2.22,0,0,0-.15.87,2.28,2.28,0,0,0,1.16,2l.3.14a2.24,2.24,0,0,0,1.69,0l.22-.1a2.8,2.8,0,0,0,.4-.27s0,0,0-.05L68,192a1.42,1.42,0,0,1-.61-1.73,1.34,1.34,0,0,1,.26-.43,1.35,1.35,0,0,1,1.11-.47,1.25,1.25,0,0,1,.46.09l.05,0a1,1,0,0,0-.35.34.36.36,0,0,0,0,.09l0,0a.88.88,0,0,0,.09.79.86.86,0,0,0,.41.34.8.8,0,0,0,.21.05h.22c.06.12.1.24.15.36l0,.08a3.89,3.89,0,0,1,.17,1,4,4,0,0,1,0,.77,3.59,3.59,0,0,1-.2.69,1.6,1.6,0,0,1-.1.23,6.42,6.42,0,0,1,1.15-.19,5.84,5.84,0,0,1,.72.92l.09-.25a3.82,3.82,0,0,1,.32-.64,3.83,3.83,0,0,1,1.29-1.23l.08,0,.35-.17,0,0a.86.86,0,0,0,.14.13l.19.1a.81.81,0,0,0,.53,0,.88.88,0,0,0,.6-.53v0l0-.09h0a.9.9,0,0,0,0-.49l.06,0a1.52,1.52,0,0,1,.41.24,1.58,1.58,0,0,1,.34.43,1.38,1.38,0,0,1,.15.67,1.46,1.46,0,0,1-.09.49,1.43,1.43,0,0,1-1.62.87l-.2-.12a.13.13,0,0,1,0,.06,2.47,2.47,0,0,0,.11.47,2.41,2.41,0,0,0,1.33,1.38l.31.09a2.28,2.28,0,0,0,2.18-.65,2.22,2.22,0,0,0,.47-.75,3.25,3.25,0,0,1,.13.62,3.63,3.63,0,0,1-.22,1.8,3.71,3.71,0,0,1-4.78,2.11,3.81,3.81,0,0,1-1.27-.82,5.85,5.85,0,0,1-.38,1.67A6,6,0,0,1,67,204.2a6,6,0,0,1-1.26-6.31,5.86,5.86,0,0,1,.84-1.49,3.7,3.7,0,0,1-3.74-2.82,3.66,3.66,0,0,1,.14-2.21"/><path class="cls-1" d="M53.36,179.35a2.29,2.29,0,0,1,2.89-.39,2.22,2.22,0,0,1,.8.84,2.43,2.43,0,0,1,.16.37l0,0a.43.43,0,0,1,0-.07h0l.17-.25h0a2.35,2.35,0,0,1,.19-.25,5.9,5.9,0,0,1,3.08-2,6,6,0,0,1-.37,3.49,5.57,5.57,0,0,1-.42.8v0a2.09,2.09,0,0,1,.56,0,2.25,2.25,0,0,1,1,.33,2.29,2.29,0,0,1,.94,2.76,2.35,2.35,0,0,0-1-1.27,2.27,2.27,0,0,0-1.53-.31,2.31,2.31,0,0,0-1.35.7,2.17,2.17,0,0,1-.57,0,2,2,0,0,1-.34-.06,2.73,2.73,0,0,1-.61-.26,2.31,2.31,0,0,1-.66-.62,1.76,1.76,0,0,1-.14-.23,2.5,2.5,0,0,1-.25-.71,2.34,2.34,0,0,0,0-.95,2.28,2.28,0,0,0-1-1.55,2.32,2.32,0,0,0-1.57-.32"/><path class="cls-1" d="M48,182.15a3.81,3.81,0,0,1,1.3-1.26,4.29,4.29,0,0,1,.58-.26,2.17,2.17,0,0,0-.32.83,2.28,2.28,0,0,0,.79,2.12,1.31,1.31,0,0,0,.27.19,2.28,2.28,0,0,0,1.66.3l.24-.06a2.48,2.48,0,0,0,.44-.2l0,0-.21-.08a1.42,1.42,0,0,1-.28-1.82,1.31,1.31,0,0,1,.33-.37,1.49,1.49,0,0,1,.63-.28,1.45,1.45,0,0,1,.55,0,1.63,1.63,0,0,1,.43.18.1.1,0,0,1,0,0,.84.84,0,0,0-.41.27l-.06.08v0a.86.86,0,0,0-.07.79.87.87,0,0,0,.35.41.82.82,0,0,0,.19.09l.19,0h0c0,.13.06.25.08.38s0,.06,0,.09a3.56,3.56,0,0,1,0,1,3.83,3.83,0,0,1-.19.74,4.35,4.35,0,0,1-.32.65l-.14.21a6.44,6.44,0,0,1,1.16,0,6.73,6.73,0,0,1,.54,1,2.53,2.53,0,0,1,.13-.22,3.55,3.55,0,0,1,.43-.57A4,4,0,0,1,57,186a3.6,3.6,0,0,1,.92-.46l.08,0,.37-.1,0,0a.44.44,0,0,0,.12.15,1.07,1.07,0,0,0,.16.14.92.92,0,0,0,.52.13.9.9,0,0,0,.69-.41v0l.05-.09h0a1,1,0,0,0,.06-.49l.05,0a1.73,1.73,0,0,1,.35.31,1.54,1.54,0,0,1,.26.49,1.6,1.6,0,0,1,0,.69,1.5,1.5,0,0,1-.19.46,1.42,1.42,0,0,1-1.75.56l-.17-.16v.07a2.57,2.57,0,0,0,0,.48,2,2,0,0,0,.05.24,2.31,2.31,0,0,0,1,1.36l.29.15a2.27,2.27,0,0,0,2.25-.25,2,2,0,0,0,.6-.64,3.32,3.32,0,0,1,0,.63,3.56,3.56,0,0,1-.55,1.72,3.62,3.62,0,0,1-1.68,1.45,3.7,3.7,0,0,1-3.41-.25,3.74,3.74,0,0,1-1.09-1,6.06,6.06,0,0,1-.69,1.57,6,6,0,0,1-5.79,2.79,6,6,0,0,1-.08-6.43,5.84,5.84,0,0,1,1.1-1.31,3.65,3.65,0,0,1-1.42-.52,3.69,3.69,0,0,1-1.75-2.93,3.76,3.76,0,0,1,.55-2.16"/><path class="cls-1" d="M40.71,168.57a2.3,2.3,0,0,1,2.91.14,2.36,2.36,0,0,1,.63,1,2.74,2.74,0,0,1,.09.39l0,0,0-.06h0l.22-.22h0l.24-.22a5.9,5.9,0,0,1,3.4-1.43,5.93,5.93,0,0,1-1,3.36,6.33,6.33,0,0,1-.56.72l0,0a2.72,2.72,0,0,1,.56.09,2.32,2.32,0,0,1,.87.5,2.29,2.29,0,0,1,.41,2.88,2.31,2.31,0,0,0-.73-1.42,2.29,2.29,0,0,0-2.89-.15,2.13,2.13,0,0,1-.56-.1,1.4,1.4,0,0,1-.34-.13,2.2,2.2,0,0,1-1.07-1.09,1.3,1.3,0,0,1-.1-.25,2.34,2.34,0,0,1-.12-.74,2.21,2.21,0,0,0,.21-.93,2.28,2.28,0,0,0-.74-1.72,2.23,2.23,0,0,0-1.48-.6"/><path class="cls-1" d="M34.91,170.34a3.64,3.64,0,0,1,1.51-1,4.57,4.57,0,0,1,.61-.16,2.31,2.31,0,0,0-.07,3,1.7,1.7,0,0,0,.22.24,2.29,2.29,0,0,0,1.58.6l.25,0a2.47,2.47,0,0,0,.47-.11l.06,0-.19-.13a1.41,1.41,0,0,1,0-1.83,1.49,1.49,0,0,1,.4-.31,1.36,1.36,0,0,1,.66-.15,1.41,1.41,0,0,1,.54.11,1.45,1.45,0,0,1,.4.26l0,0A.86.86,0,0,0,41,171l-.07.06,0,0a.86.86,0,0,0-.2.76.82.82,0,0,0,.26.47.71.71,0,0,0,.18.12.51.51,0,0,0,.17.07h0c0,.13,0,.26,0,.39a.28.28,0,0,1,0,.09,3.24,3.24,0,0,1-.2,1,3.6,3.6,0,0,1-.32.69,4.83,4.83,0,0,1-.43.58l-.18.18a5.79,5.79,0,0,1,1.14.24,6.19,6.19,0,0,1,.34,1.11c0-.07.11-.13.16-.19a3.44,3.44,0,0,1,.54-.48,3.75,3.75,0,0,1,.66-.4,3.87,3.87,0,0,1,1-.29h.09a2.34,2.34,0,0,1,.38,0v0a.87.87,0,0,0,.23.33.85.85,0,0,0,.48.22.87.87,0,0,0,.75-.28l0,0,.06-.08h0a1,1,0,0,0,.15-.47l0,0a1.43,1.43,0,0,1,.29.37,1.26,1.26,0,0,1,.16.53,1.33,1.33,0,0,1-.09.68,1.37,1.37,0,0,1-.27.42,1.41,1.41,0,0,1-1.82.22l-.14-.18s0,0,0,.06a2,2,0,0,0-.07.48v.25a2.32,2.32,0,0,0,.74,1.52l.26.2a2.29,2.29,0,0,0,2.26.17,2.36,2.36,0,0,0,.71-.52,3.34,3.34,0,0,1-.1.62,3.61,3.61,0,0,1-.85,1.6,3.72,3.72,0,0,1-5.23.24,3.76,3.76,0,0,1-.88-1.23,6.12,6.12,0,0,1-1,1.42A6,6,0,0,1,34,183.75a6,6,0,0,1,1.1-6.33,5.89,5.89,0,0,1,1.32-1.09,3.86,3.86,0,0,1-1.3-.77A3.7,3.7,0,0,1,34,172.35a3.65,3.65,0,0,1,.93-2"/><path class="cls-1" d="M30.25,155.65a2.28,2.28,0,0,1,3.27,1.75,2.68,2.68,0,0,1,0,.4l0,0,.07-.05h0l.25-.17h0l.26-.16a6,6,0,0,1,3.61-.79,5.89,5.89,0,0,1-1.6,3.13,6.39,6.39,0,0,1-.68.59l0,0a1.93,1.93,0,0,1,.52.2,2.18,2.18,0,0,1,.77.65,2.28,2.28,0,0,1-.12,2.91,2.33,2.33,0,0,0-.46-1.53,2.23,2.23,0,0,0-1.3-.85,2.29,2.29,0,0,0-1.52.16,2.58,2.58,0,0,1-.53-.19,2.2,2.2,0,0,1-.3-.19,2.33,2.33,0,0,1-.47-.47,2.17,2.17,0,0,1-.39-.81,2.38,2.38,0,0,1-.05-.26,2.1,2.1,0,0,1,0-.75,2.29,2.29,0,0,0,0-2.71,2.26,2.26,0,0,0-1.34-.85"/><path class="cls-1" d="M24.23,156.32a3.58,3.58,0,0,1,1.67-.71,4.21,4.21,0,0,1,.62,0,2.46,2.46,0,0,0-.59.66,2.3,2.3,0,0,0,0,2.27,2.11,2.11,0,0,0,.18.27,2.24,2.24,0,0,0,1.44.88l.25,0a1.94,1.94,0,0,0,.48,0h.06c-.06,0-.11-.1-.17-.15a1.42,1.42,0,0,1,.4-1.8,1.4,1.4,0,0,1,.44-.22,1.31,1.31,0,0,1,.68,0,1.2,1.2,0,0,1,.51.21,1.32,1.32,0,0,1,.35.32l0,.05a.91.91,0,0,0-.48.1l-.08.06h0a.91.91,0,0,0-.35.72,1,1,0,0,0,.18.51,1.06,1.06,0,0,0,.15.15l.16.1,0,0c0,.12,0,.25-.07.37a.29.29,0,0,1,0,.09,3.77,3.77,0,0,1-.38,1,3.92,3.92,0,0,1-.45.62,3.54,3.54,0,0,1-.53.49l-.21.14a6.32,6.32,0,0,1,1.08.45,6.43,6.43,0,0,1,.13,1.15l.2-.16a3.81,3.81,0,0,1,.61-.37,3.21,3.21,0,0,1,.73-.27,3.88,3.88,0,0,1,1-.1h.09a2.47,2.47,0,0,1,.38.05v0a.59.59,0,0,0,.05.19.87.87,0,0,0,.11.18.87.87,0,0,0,1.22.17l0,0,.08-.06h0a.85.85,0,0,0,.23-.44l0,0a1.38,1.38,0,0,1,.21.42,1.44,1.44,0,0,1,.07.54,1.48,1.48,0,0,1-.22.65,1.33,1.33,0,0,1-.34.37,1.42,1.42,0,0,1-1.83-.11,2.12,2.12,0,0,1-.11-.21l0,.06a3.53,3.53,0,0,0-.15.46,2,2,0,0,0,0,.24,2.28,2.28,0,0,0,.45,1.63l.21.25a2.31,2.31,0,0,0,2.19.58,2.35,2.35,0,0,0,.8-.38,3.19,3.19,0,0,1-.21.59,3.7,3.7,0,0,1-7-.67,5.78,5.78,0,0,1-1.21,1.21,6,6,0,0,1-6.41.51,6,6,0,0,1,2.25-6,5.83,5.83,0,0,1,1.5-.83,3.83,3.83,0,0,1-1.14-1,3.7,3.7,0,0,1-.56-3.37,3.61,3.61,0,0,1,1.29-1.81"/><path class="cls-1" d="M22.34,141A2.3,2.3,0,0,1,25,142.2a2.32,2.32,0,0,1,.24,1.14,2.57,2.57,0,0,1-.06.4h0l.07,0h0l.27-.12h0l.29-.11a5.91,5.91,0,0,1,3.69-.11,6,6,0,0,1-2.15,2.78,6.53,6.53,0,0,1-.77.46h0a2.36,2.36,0,0,1,.48.29,2.33,2.33,0,0,1,.64.78,2.31,2.31,0,0,1-.66,2.84,2.26,2.26,0,0,0-.17-1.59,2.31,2.31,0,0,0-2.64-1.19,2.18,2.18,0,0,1-.49-.29,2,2,0,0,1-.26-.24,2.21,2.21,0,0,1-.61-1.41,2.44,2.44,0,0,1,0-.27,2.35,2.35,0,0,1,.17-.74,2.24,2.24,0,0,0,.53-.79,2.27,2.27,0,0,0-1.24-3"/><path class="cls-1" d="M16.3,140.57a3.7,3.7,0,0,1,1.77-.38,3.18,3.18,0,0,1,.62.07,2.34,2.34,0,0,0-.7.54,2.31,2.31,0,0,0-.45,2.23c0,.1.08.2.13.3a2.28,2.28,0,0,0,1.25,1.12l.24.08a2.63,2.63,0,0,0,.48.06h.06a1.18,1.18,0,0,1-.13-.18,1.41,1.41,0,0,1,.71-1.69,1.46,1.46,0,0,1,.48-.14,1.43,1.43,0,0,1,.68.09,1.41,1.41,0,0,1,.46.3,1.78,1.78,0,0,1,.28.38l0,.06a.91.91,0,0,0-.49,0l-.09,0h0a.86.86,0,0,0-.47.64.82.82,0,0,0,.08.53.57.57,0,0,0,.12.18.58.58,0,0,0,.14.13l0,0c0,.12-.08.24-.13.36l0,.08a3.45,3.45,0,0,1-.55.87,3.54,3.54,0,0,1-.56.53,4.17,4.17,0,0,1-.61.38l-.23.11a6.8,6.8,0,0,1,1,.63,5.62,5.62,0,0,1-.09,1.16l.23-.12a4.22,4.22,0,0,1,.67-.26,3.34,3.34,0,0,1,.76-.12,3.84,3.84,0,0,1,1,.08l.09,0,.37.11v0a1.11,1.11,0,0,0,0,.19,1.72,1.72,0,0,0,.07.21.88.88,0,0,0,1.17.39l0,0,.08,0h0a.87.87,0,0,0,.31-.38l0,.05a1.56,1.56,0,0,1,.14.45,1.41,1.41,0,0,1-.38,1.15,1.18,1.18,0,0,1-.4.29,1.4,1.4,0,0,1-1.78-.44c0-.08-.05-.15-.06-.22a.1.1,0,0,0,0,.05,2.13,2.13,0,0,0-.23.42,1.09,1.09,0,0,0-.09.23,2.32,2.32,0,0,0,.14,1.69l.17.28a2.3,2.3,0,0,0,2,1,2.27,2.27,0,0,0,.86-.24,4.37,4.37,0,0,1-.32.55,3.79,3.79,0,0,1-1.38,1.18,3.71,3.71,0,0,1-5.34-3.12,5.88,5.88,0,0,1-1.41,1,6,6,0,0,1-6.39-.67,6,6,0,0,1,3.31-5.52,5.86,5.86,0,0,1,1.63-.53,3.71,3.71,0,0,1,.73-6.15"/><path class="cls-1" d="M17.25,125.19a2.28,2.28,0,0,1,2.4,1.65,2.21,2.21,0,0,1,0,1.17,2.78,2.78,0,0,1-.12.38h0l.08,0h0l.3-.08h0l.31-.06a6,6,0,0,1,3.65.58,6,6,0,0,1-3.47,2.64h0a2.42,2.42,0,0,1,.42.37,2.32,2.32,0,0,1,.48.89,2.27,2.27,0,0,1-1.17,2.66,2.28,2.28,0,0,0,.13-1.59,2.31,2.31,0,0,0-.91-1.26,2.23,2.23,0,0,0-1.47-.39,2.6,2.6,0,0,1-.43-.38,1.86,1.86,0,0,1-.21-.28,2.23,2.23,0,0,1-.27-.61,2.09,2.09,0,0,1-.07-.89,1.28,1.28,0,0,1,0-.27,2.47,2.47,0,0,1,.29-.69,2.29,2.29,0,0,0,.67-.68,2.25,2.25,0,0,0,.27-1.85,2.28,2.28,0,0,0-.95-1.29"/><path class="cls-1" d="M11.4,123.64a3.71,3.71,0,0,1,1.81,0,4.14,4.14,0,0,1,.6.18,2.38,2.38,0,0,0-.79.41,2.3,2.3,0,0,0-.85,2.1,1.83,1.83,0,0,0,.07.32,2.25,2.25,0,0,0,1,1.34l.22.11a2.18,2.18,0,0,0,.45.16H14L13.9,128a1.42,1.42,0,0,1,1.52-1.58,1.44,1.44,0,0,1,.64.22,1.32,1.32,0,0,1,.4.38,1.5,1.5,0,0,1,.21.42s0,0,0,.06a.91.91,0,0,0-.49-.08l-.09,0h0a.87.87,0,0,0-.58.54.9.9,0,0,0,0,.54,1.19,1.19,0,0,0,.08.2l.11.15,0,0a2.59,2.59,0,0,1-.19.33.35.35,0,0,0-.05.08,4.15,4.15,0,0,1-.7.75,4,4,0,0,1-.65.42,3.58,3.58,0,0,1-.67.26l-.25.06a6.44,6.44,0,0,1,.85.8,7,7,0,0,1-.3,1.13l.24-.08a3.67,3.67,0,0,1,.71-.13,4,4,0,0,1,.77,0,3.3,3.3,0,0,1,1,.27l.09,0,.33.17v0a.62.62,0,0,0,0,.19.83.83,0,0,0,0,.22.85.85,0,0,0,.3.44.86.86,0,0,0,.78.16h0l.09,0h0a.88.88,0,0,0,.37-.32s0,0,0,.06a1.48,1.48,0,0,1,.05.47,1.44,1.44,0,0,1-.14.53,1.38,1.38,0,0,1-.44.52,1.22,1.22,0,0,1-.44.22,1.4,1.4,0,0,1-1.67-.76,2,2,0,0,1,0-.23l-.05,0a2.17,2.17,0,0,0-.31.37c0,.07-.09.14-.13.22a2.36,2.36,0,0,0-.17,1.68,1.88,1.88,0,0,0,.12.3,2.28,2.28,0,0,0,1.83,1.34,2.42,2.42,0,0,0,.88-.07,3.73,3.73,0,0,1-.41.47,3.7,3.7,0,0,1-3.79.85,3.7,3.7,0,0,1-2.35-2.48,3.89,3.89,0,0,1-.11-1.51,6,6,0,0,1-7.73-1.14,6,6,0,0,1,4.27-4.81,6.27,6.27,0,0,1,1.7-.23,3.85,3.85,0,0,1-.7-1.33,3.69,3.69,0,0,1,2.55-4.57"/><path class="cls-1" d="M15.16,108.69A2.29,2.29,0,0,1,17,111.91a2.43,2.43,0,0,1-.2.35h.11l.3,0h.33a5.93,5.93,0,0,1,3.48,1.23,6,6,0,0,1-3,1.82,6.36,6.36,0,0,1-.89.15h0a2.12,2.12,0,0,1,.35.44,2.22,2.22,0,0,1,.31,1,2.3,2.3,0,0,1-1.64,2.41,2.32,2.32,0,0,0,.42-1.55,2.28,2.28,0,0,0-.66-1.4,2.36,2.36,0,0,0-1.38-.66,2.25,2.25,0,0,1-.35-.45,1.57,1.57,0,0,1-.15-.32,2.23,2.23,0,0,1-.16-.64,2.2,2.2,0,0,1,.1-.89,1.84,1.84,0,0,1,.09-.25,2.48,2.48,0,0,1,.42-.63,2.23,2.23,0,0,0,.78-.54,2.28,2.28,0,0,0-.09-3.22"/><path class="cls-1" d="M9.69,106.1a3.57,3.57,0,0,1,1.79.28,3.71,3.71,0,0,1,.56.29,2.4,2.4,0,0,0-.85.25A2.27,2.27,0,0,0,10,108.83a1.82,1.82,0,0,0,0,.33,2.31,2.31,0,0,0,.77,1.5,1.56,1.56,0,0,0,.2.16,2.38,2.38,0,0,0,.41.23l.07,0a1.1,1.1,0,0,1,1.21-1.53,1.2,1.2,0,0,1,.5,0,1.42,1.42,0,0,1,.6.33,1.6,1.6,0,0,1,.32.45,1.66,1.66,0,0,1,.12.45v.06a.82.82,0,0,0-.46-.16h-.13a.87.87,0,0,0-.67.43.91.91,0,0,0-.12.52.8.8,0,0,0,.05.21.89.89,0,0,0,.08.17v0a2.18,2.18,0,0,1-.25.28l-.06.07a3.86,3.86,0,0,1-.83.61,3.41,3.41,0,0,1-.71.29,4.06,4.06,0,0,1-.71.14h-.25a7,7,0,0,1,.68.94,5.71,5.71,0,0,1-.5,1.06l.26,0a3.36,3.36,0,0,1,.71,0,3.21,3.21,0,0,1,.76.16A3.39,3.39,0,0,1,13,116l.08.06.3.23v0a1.05,1.05,0,0,0-.05.19.74.74,0,0,0,0,.21.78.78,0,0,0,.21.49.85.85,0,0,0,.73.3h.13a.89.89,0,0,0,.43-.25v.06a1.23,1.23,0,0,1,0,.47,1.75,1.75,0,0,1-.23.5,1.48,1.48,0,0,1-.53.43,1.32,1.32,0,0,1-.48.13,1.4,1.4,0,0,1-1.5-1.06,1.64,1.64,0,0,1,0-.22l-.06,0a2.64,2.64,0,0,0-.37.31l-.16.18a2.31,2.31,0,0,0-.48,1.62,1.91,1.91,0,0,0,.06.33,2.29,2.29,0,0,0,1.55,1.65,2.34,2.34,0,0,0,.88.09,3.65,3.65,0,0,1-.49.39,3.74,3.74,0,0,1-1.71.61,3.7,3.7,0,0,1-4-3.34,3.57,3.57,0,0,1,.17-1.5,6.47,6.47,0,0,1-1.67.4A6,6,0,0,1,0,115.42a6,6,0,0,1,5.08-4,6.07,6.07,0,0,1,1.71.09,3.84,3.84,0,0,1-.44-1.44A3.72,3.72,0,0,1,7.64,107a3.64,3.64,0,0,1,2.05-.86"/><path class="cls-1" d="M16.14,92.1a2.28,2.28,0,0,1,1.64,2.4,2.32,2.32,0,0,1-.4,1.1,1.87,1.87,0,0,1-.26.3h.12l.29,0h0l.3.05a5.94,5.94,0,0,1,3.2,1.86,6,6,0,0,1-3.29,1.22,5.42,5.42,0,0,1-.9,0h0a2.3,2.3,0,0,1,.26.49,2.38,2.38,0,0,1,.13,1,2.31,2.31,0,0,1-2.06,2.07,2.27,2.27,0,0,0,.3-3,2.25,2.25,0,0,0-1.22-.89,2.49,2.49,0,0,1-.27-.51,1.89,1.89,0,0,1-.09-.34,2.4,2.4,0,0,1,0-.66,2.27,2.27,0,0,1,.26-.86,1.76,1.76,0,0,1,.14-.23,2.26,2.26,0,0,1,.53-.54,2.36,2.36,0,0,0,.87-.39,2.28,2.28,0,0,0,.5-3.17"/><path class="cls-1" d="M11.24,88.54a3.62,3.62,0,0,1,1.71.6,4.66,4.66,0,0,1,.49.39,2.34,2.34,0,0,0-.88.09A2.3,2.3,0,0,0,11,91.28a1.65,1.65,0,0,0-.06.32,2.31,2.31,0,0,0,.48,1.62l.16.18a2.64,2.64,0,0,0,.37.31l.06,0a1.79,1.79,0,0,1,0-.23,1.4,1.4,0,0,1,1.5-1.06,1.32,1.32,0,0,1,.48.13,1.41,1.41,0,0,1,.53.44,1.53,1.53,0,0,1,.23.5,1.17,1.17,0,0,1,0,.46v.06a.88.88,0,0,0-.43-.24l-.1,0h0a.84.84,0,0,0-.73.29.94.94,0,0,0-.21.71,1.21,1.21,0,0,0,.05.18v0l-.3.24-.08.05a3.74,3.74,0,0,1-.92.45,3.79,3.79,0,0,1-.76.15,3.36,3.36,0,0,1-.71,0l-.26,0a6,6,0,0,1,.5,1.06,7,7,0,0,1-.68.94l.25,0a3.3,3.3,0,0,1,.71.13,3.41,3.41,0,0,1,.71.29,3.86,3.86,0,0,1,.83.61l.06.07a2.26,2.26,0,0,1,.25.29v0a1,1,0,0,0-.08.18.65.65,0,0,0-.05.2,1,1,0,0,0,.12.53.86.86,0,0,0,.67.42h.13a.83.83,0,0,0,.46-.17v.06a1.73,1.73,0,0,1-.12.46,1.41,1.41,0,0,1-.92.77,1.4,1.4,0,0,1-.5,0,1.11,1.11,0,0,1-1.21-1.54l-.07,0a2.44,2.44,0,0,0-.41.24,1.49,1.49,0,0,0-.2.15,2.31,2.31,0,0,0-.77,1.5,1.82,1.82,0,0,0,0,.33,2.29,2.29,0,0,0,1.22,1.91,2.21,2.21,0,0,0,.85.25,3.76,3.76,0,0,1-.56.3,3.68,3.68,0,0,1-1.79.28,3.69,3.69,0,0,1-3.34-4,3.84,3.84,0,0,1,.44-1.44,6.07,6.07,0,0,1-1.71.09A6,6,0,0,1,0,95.92,6,6,0,0,1,5.72,93a5.75,5.75,0,0,1,1.67.4,3.58,3.58,0,0,1-.17-1.5A3.7,3.7,0,0,1,9.07,89a3.62,3.62,0,0,1,2.17-.46"/><path class="cls-1" d="M20.15,76a2.29,2.29,0,0,1,.58,3.67,2.42,2.42,0,0,1-.31.25h0l.08,0h0l.29.09h0l.3.12a5.94,5.94,0,0,1,2.8,2.4,6,6,0,0,1-3.46.61,5.65,5.65,0,0,1-.89-.19h0a2.49,2.49,0,0,1,.16.53,2.32,2.32,0,0,1-.06,1,2.28,2.28,0,0,1-2.4,1.65,2.26,2.26,0,0,0,.95-1.28,2.28,2.28,0,0,0-1.15-2.66,2.19,2.19,0,0,1-.17-.55,2,2,0,0,1,0-.35,2.37,2.37,0,0,1,.09-.65,2.21,2.21,0,0,1,.41-.81l.18-.2a2.45,2.45,0,0,1,.62-.43,2.39,2.39,0,0,0,.92-.22,2.3,2.3,0,0,0,1.21-1.44A2.28,2.28,0,0,0,20.15,76"/><path class="cls-1" d="M16,71.56a3.64,3.64,0,0,1,1.57.91,3.73,3.73,0,0,1,.41.47,2.46,2.46,0,0,0-.89-.07,2.28,2.28,0,0,0-1.82,1.34,1.66,1.66,0,0,0-.12.31,2.31,2.31,0,0,0,.17,1.68l.13.21a2.17,2.17,0,0,0,.31.37.1.1,0,0,0,.05,0,1.64,1.64,0,0,1,0-.22,1.4,1.4,0,0,1,2.11-.55,1.46,1.46,0,0,1,.44.52,1.44,1.44,0,0,1,.14.54,1.54,1.54,0,0,1-.05.47s0,0,0,0a.88.88,0,0,0-.37-.32l-.09,0h0a.86.86,0,0,0-.78.15.84.84,0,0,0-.3.45.76.76,0,0,0,0,.21.61.61,0,0,0,0,.19v0l-.33.17-.09,0a3.75,3.75,0,0,1-1.76.29,3.67,3.67,0,0,1-.71-.13l-.24-.08a7,7,0,0,1,.3,1.13,6.44,6.44,0,0,1-.85.8l.25.06a4.44,4.44,0,0,1,.67.26,4,4,0,0,1,.65.42,3.83,3.83,0,0,1,.7.75.35.35,0,0,0,.05.08c.07.11.13.22.19.33l0,0a.91.91,0,0,0-.11.16,1.08,1.08,0,0,0-.08.19.9.9,0,0,0,0,.54.87.87,0,0,0,.58.54h0l.09,0h0a.91.91,0,0,0,.49-.08s0,0,0,.06a1.5,1.5,0,0,1-.21.42,1.12,1.12,0,0,1-.4.38,1.33,1.33,0,0,1-.64.22,1.42,1.42,0,0,1-1.52-1.58,2.12,2.12,0,0,1,.11-.21l-.07,0a1.7,1.7,0,0,0-.45.15,1.51,1.51,0,0,0-.22.11,2.25,2.25,0,0,0-1,1.34,2.06,2.06,0,0,0-.07.32A2.31,2.31,0,0,0,13,87.16a2.56,2.56,0,0,0,.79.4,4.18,4.18,0,0,1-.6.19,3.71,3.71,0,0,1-1.81-.06,3.63,3.63,0,0,1-1.86-1.22,3.72,3.72,0,0,1-.69-3.35,3.85,3.85,0,0,1,.7-1.33,6.27,6.27,0,0,1-1.7-.23,6,6,0,0,1-4.27-4.81,6,6,0,0,1,7.73-1.14,3.89,3.89,0,0,1,.11-1.51,3.7,3.7,0,0,1,2.35-2.48A3.65,3.65,0,0,1,16,71.56"/><path class="cls-1" d="M27.06,60.84a2.29,2.29,0,0,1,.66,2.83,2.23,2.23,0,0,1-1.12,1.07h0l.08,0h0l.26.15h0l.27.17A5.9,5.9,0,0,1,29.55,68,6,6,0,0,1,26,68a6.65,6.65,0,0,1-.83-.35h0a2.6,2.6,0,0,1,.06.56,2.32,2.32,0,0,1-.24,1,2.29,2.29,0,0,1-2.66,1.18,2.29,2.29,0,0,0,1.34-2.63,2.27,2.27,0,0,0-.82-1.28,2.76,2.76,0,0,1-.06-.57,2,2,0,0,1,0-.35,2.34,2.34,0,0,1,.21-.63,2.29,2.29,0,0,1,.55-.71,1.84,1.84,0,0,1,.22-.17,2.46,2.46,0,0,1,.68-.31,2.34,2.34,0,0,0,1,0,2.26,2.26,0,0,0,1.45-1.19,2.3,2.3,0,0,0,.17-1.58"/><path class="cls-1" d="M23.77,55.74a3.72,3.72,0,0,1,1.38,1.19,3.65,3.65,0,0,1,.32.54,2.3,2.3,0,0,0-2.9.75,1.89,1.89,0,0,0-.17.28,2.29,2.29,0,0,0-.14,1.68.92.92,0,0,0,.09.23,2.13,2.13,0,0,0,.23.42l0,.06a2,2,0,0,1,.06-.23,1.41,1.41,0,0,1,1.78-.44,1.33,1.33,0,0,1,.4.29,1.44,1.44,0,0,1,.34.6,1.71,1.71,0,0,1,0,.55,1.47,1.47,0,0,1-.14.45l0,0a.87.87,0,0,0-.31-.38l-.08-.05,0,0a.88.88,0,0,0-.79,0,1,1,0,0,0-.38.39,1.18,1.18,0,0,0-.07.2,1.11,1.11,0,0,0,0,.19v0l-.37.11-.09,0a3.46,3.46,0,0,1-1,.08,3.34,3.34,0,0,1-.76-.12,3.44,3.44,0,0,1-.67-.26l-.23-.12a5.62,5.62,0,0,1,.09,1.16,6,6,0,0,1-1,.63l.23.11a4.17,4.17,0,0,1,.61.38,3.54,3.54,0,0,1,.56.53,3.64,3.64,0,0,1,.55.87.59.59,0,0,0,0,.08c0,.12.09.24.13.36l0,0a.58.58,0,0,0-.14.13.94.94,0,0,0-.12.18.83.83,0,0,0-.08.53.86.86,0,0,0,.47.64h0l.09,0h0a.82.82,0,0,0,.49,0s0,0,0,.06a1.78,1.78,0,0,1-.28.38,1.41,1.41,0,0,1-.46.3,1.31,1.31,0,0,1-.68.09,1.25,1.25,0,0,1-.48-.14,1.41,1.41,0,0,1-.71-1.69l.13-.18h-.06a2,2,0,0,0-.48.07l-.24.07A2.26,2.26,0,0,0,17.67,68a2.08,2.08,0,0,0-.13.3A2.29,2.29,0,0,0,18,70.53a2.34,2.34,0,0,0,.7.54,3.18,3.18,0,0,1-.62.07,3.69,3.69,0,0,1-3.43-5.34,3.51,3.51,0,0,1,.93-1.18,6.24,6.24,0,0,1-1.63-.54,6,6,0,0,1-3.31-5.51A6,6,0,0,1,17,57.89a5.64,5.64,0,0,1,1.41,1,3.71,3.71,0,0,1,5.34-3.13"/><path class="cls-1" d="M36.63,47.24a2.28,2.28,0,0,1,.12,2.91,2.35,2.35,0,0,1-.91.72,2.4,2.4,0,0,1-.38.12l0,0,.07.05h0l.23.19h0l.23.21a5.91,5.91,0,0,1,1.74,3.26A6,6,0,0,1,34.32,54a5.75,5.75,0,0,1-.76-.49l0,0a2.09,2.09,0,0,1,0,.56,2.18,2.18,0,0,1-.41.92,2.29,2.29,0,0,1-2.83.68,2.32,2.32,0,0,0,1.34-.86,2.24,2.24,0,0,0,.46-1.49,2.29,2.29,0,0,0-.57-1.41,2.19,2.19,0,0,1,0-.57c0-.11.06-.23.1-.34a2.3,2.3,0,0,1,.32-.57,2.23,2.23,0,0,1,.67-.6,1.34,1.34,0,0,1,.24-.12,2.32,2.32,0,0,1,.73-.19,2.38,2.38,0,0,0,1,.13,2.3,2.3,0,0,0,1.64-.9,2.34,2.34,0,0,0,.46-1.53"/><path class="cls-1" d="M34.33,41.63A3.68,3.68,0,0,1,35.47,43a3,3,0,0,1,.21.6,2.2,2.2,0,0,0-.8-.39,2.29,2.29,0,0,0-2.19.59,2.57,2.57,0,0,0-.21.24A2.28,2.28,0,0,0,32,45.71a2.17,2.17,0,0,0,0,.25,4,4,0,0,0,.15.45l0,.06a1.28,1.28,0,0,1,.11-.2,1.41,1.41,0,0,1,1.83-.12,1.44,1.44,0,0,1,.56,1,1.41,1.41,0,0,1-.07.54,1.21,1.21,0,0,1-.22.42l0,0a1,1,0,0,0-.23-.44l-.08-.06,0,0a.87.87,0,0,0-1.22.17.87.87,0,0,0-.11.18,1.33,1.33,0,0,0-.05.19v0l-.38,0h-.09a3.5,3.5,0,0,1-1-.1,3.91,3.91,0,0,1-1.34-.64l-.2-.16a6.33,6.33,0,0,1-.13,1.15,5.61,5.61,0,0,1-1.08.45l.21.14a3.54,3.54,0,0,1,.53.49,3.59,3.59,0,0,1,.45.63,3.7,3.7,0,0,1,.38,1,.29.29,0,0,1,0,.09c0,.12.05.25.07.38h0l-.16.1a.75.75,0,0,0-.15.16,1,1,0,0,0-.18.5.91.91,0,0,0,.35.72l0,0,.08.05h0a.82.82,0,0,0,.48.1l0,0a1.56,1.56,0,0,1-.35.33,1.53,1.53,0,0,1-.51.21,1.43,1.43,0,0,1-.68,0,1.22,1.22,0,0,1-.44-.22,1.42,1.42,0,0,1-.4-1.8l.17-.15h-.06a1.93,1.93,0,0,0-.48,0l-.25,0a2.28,2.28,0,0,0-1.44.88,2.11,2.11,0,0,0-.18.27,2.3,2.3,0,0,0,0,2.27,2.46,2.46,0,0,0,.59.66,4.21,4.21,0,0,1-.62,0,3.72,3.72,0,0,1-3-2.52,3.69,3.69,0,0,1,.56-3.36,3.73,3.73,0,0,1,1.14-1,5.54,5.54,0,0,1-1.5-.83,6,6,0,0,1-2.25-6,6,6,0,0,1,6.41.51,5.83,5.83,0,0,1,1.21,1.22,3.75,3.75,0,0,1,.65-1.37,3.65,3.65,0,0,1,3.08-1.46,3.59,3.59,0,0,1,2.09.74"/><path class="cls-1" d="M48.53,35.63a2.29,2.29,0,0,1-.41,2.88,2.19,2.19,0,0,1-1,.54,2.57,2.57,0,0,1-.4.06l0,0,.06.06h0l.19.23h0c.06.08.13.16.19.25a6,6,0,0,1,1.11,3.52A6,6,0,0,1,45,41.89a4.74,4.74,0,0,1-.65-.62l0,0a2.39,2.39,0,0,1-.15.54,2.13,2.13,0,0,1-.58.83,2.27,2.27,0,0,1-2.9.14,2.27,2.27,0,0,0,1.48-.59,2.31,2.31,0,0,0,.42-2.87,1.8,1.8,0,0,1,.15-.55,1.87,1.87,0,0,1,.15-.32,2.92,2.92,0,0,1,.42-.51,2.3,2.3,0,0,1,.78-.46l.25-.08a2.37,2.37,0,0,1,.75,0,2.29,2.29,0,0,0,3.42-1.71"/><path class="cls-1" d="M47.31,29.7a3.63,3.63,0,0,1,.85,1.59,3.47,3.47,0,0,1,.1.62,2.36,2.36,0,0,0-.71-.52,2.29,2.29,0,0,0-2.26.17,1.71,1.71,0,0,0-.26.21,2.3,2.3,0,0,0-.74,1.51v.25a2.63,2.63,0,0,0,.06.48.14.14,0,0,1,0,.06l.14-.18a1.4,1.4,0,0,1,1.82.23,1.26,1.26,0,0,1,.27.42,1.29,1.29,0,0,1,.09.67,1.21,1.21,0,0,1-.16.53,1.28,1.28,0,0,1-.29.37l0,0a1,1,0,0,0-.15-.47L46,35.6l0,0a.87.87,0,0,0-.75-.28.85.85,0,0,0-.48.22,1,1,0,0,0-.14.16.7.7,0,0,0-.09.17v0a2.34,2.34,0,0,1-.38,0H44a3.87,3.87,0,0,1-1-.29,4.4,4.4,0,0,1-.66-.39,4,4,0,0,1-.54-.48l-.16-.2a6.19,6.19,0,0,1-.34,1.11,5.79,5.79,0,0,1-1.14.24l.18.18a4.83,4.83,0,0,1,.43.58,3.68,3.68,0,0,1,.32.7,3.12,3.12,0,0,1,.2,1,.34.34,0,0,1,0,.1c0,.12,0,.25,0,.38h0a.67.67,0,0,0-.18.07A.66.66,0,0,0,41,39a.82.82,0,0,0-.26.47.88.88,0,0,0,.2.77l0,0,.08.06h0a.87.87,0,0,0,.45.2s0,0,0,0a1.41,1.41,0,0,1-.4.25,1.24,1.24,0,0,1-.54.11,1.28,1.28,0,0,1-.66-.15,1.49,1.49,0,0,1-.4-.31,1.41,1.41,0,0,1,0-1.83.76.76,0,0,1,.19-.12l-.06,0a2.47,2.47,0,0,0-.47-.11h-.25a2.28,2.28,0,0,0-1.58.59l-.22.24a2.29,2.29,0,0,0-.39,2.23,2.38,2.38,0,0,0,.46.76,3.43,3.43,0,0,1-.61-.16A3.69,3.69,0,0,1,34,39a3.71,3.71,0,0,1,1.17-3.21,3.86,3.86,0,0,1,1.3-.77,5.89,5.89,0,0,1-1.32-1.09A6,6,0,0,1,34,27.58a6,6,0,0,1,6.21,1.68,6.12,6.12,0,0,1,1,1.42,3.87,3.87,0,0,1,.88-1.23,3.7,3.7,0,0,1,3.31-.87,3.65,3.65,0,0,1,1.92,1.12"/><path class="cls-1" d="M62.36,26.41a2.26,2.26,0,0,1-.93,2.75,2.18,2.18,0,0,1-1.11.34,1.79,1.79,0,0,1-.4,0v0l0,.07h0l.15.26h0l.14.28a5.93,5.93,0,0,1,.45,3.67,5.94,5.94,0,0,1-3-1.88,5.44,5.44,0,0,1-.53-.73l0,0a2.38,2.38,0,0,1-.24.51,2.19,2.19,0,0,1-.72.7A2.29,2.29,0,0,1,53.36,32a2.26,2.26,0,0,0,2.53-1.54,2.27,2.27,0,0,0,0-1.52,2.38,2.38,0,0,1,.24-.51,3,3,0,0,1,.22-.28,2.18,2.18,0,0,1,1.35-.74l.27,0a2.32,2.32,0,0,1,.74.1,2.28,2.28,0,0,0,3.67-1.05"/><path class="cls-1" d="M62.25,20.35a3.56,3.56,0,0,1,.55,1.73,3.32,3.32,0,0,1,0,.63,2.21,2.21,0,0,0-.6-.65,2.29,2.29,0,0,0-2.25-.25,2.69,2.69,0,0,0-.29.16,2.29,2.29,0,0,0-1,1.35,1.84,1.84,0,0,0-.05.25,2.5,2.5,0,0,0,0,.48v.06l.17-.15a1.41,1.41,0,0,1,1.75.55,1.45,1.45,0,0,1,.19.47,1.56,1.56,0,0,1,0,.68,1.54,1.54,0,0,1-.26.49,1.73,1.73,0,0,1-.35.31l-.06,0a.92.92,0,0,0,0-.49l-.05-.09v0a.87.87,0,0,0-.69-.41.83.83,0,0,0-.52.12,1.07,1.07,0,0,0-.16.14.44.44,0,0,0-.12.15l0,0L58,25.82l-.08,0a3.64,3.64,0,0,1-1.5-1,3.55,3.55,0,0,1-.43-.57,2.53,2.53,0,0,1-.13-.22,6.73,6.73,0,0,1-.54,1,5.64,5.64,0,0,1-1.16,0l.14.22a3.15,3.15,0,0,1,.31.64,3.19,3.19,0,0,1,.2.75,3.49,3.49,0,0,1,0,1s0,.06,0,.09,0,.25-.08.38h0l-.19,0a.82.82,0,0,0-.19.09.87.87,0,0,0-.35.41.86.86,0,0,0,.07.79v0l.06.08h0a.92.92,0,0,0,.41.27l0,0a1.63,1.63,0,0,1-.43.18,1.45,1.45,0,0,1-.55,0,1.38,1.38,0,0,1-.63-.28,1.31,1.31,0,0,1-.33-.37,1.41,1.41,0,0,1,.28-1.81l.21-.09,0,0a1.89,1.89,0,0,0-.44-.19l-.24-.07a2.28,2.28,0,0,0-1.66.3,1.85,1.85,0,0,0-.27.19,2.28,2.28,0,0,0-.79,2.13,2.35,2.35,0,0,0,.31.82,4.8,4.8,0,0,1-.57-.26A3.81,3.81,0,0,1,48,29.18,3.74,3.74,0,0,1,47.44,27a3.69,3.69,0,0,1,1.75-2.93,3.65,3.65,0,0,1,1.42-.52,5.84,5.84,0,0,1-1.1-1.31,6,6,0,0,1,.08-6.43,6,6,0,0,1,5.79,2.79,6.06,6.06,0,0,1,.69,1.57,3.74,3.74,0,0,1,1.09-1,3.7,3.7,0,0,1,5.09,1.2"/><path class="cls-1" d="M77.66,19.88a2.3,2.3,0,0,1-1.42,2.54,2.23,2.23,0,0,1-1.16.13,2.46,2.46,0,0,1-.39-.09v0l0,.07h0c0,.1.06.19.1.29h0c0,.1.06.2.08.3a5.88,5.88,0,0,1-.23,3.69,5.92,5.92,0,0,1-2.56-2.4,6,6,0,0,1-.39-.81v0a2.36,2.36,0,0,1-.33.45,2.22,2.22,0,0,1-.84.56,2.27,2.27,0,0,1-2.76-.91,2.29,2.29,0,0,0,3-2.55,2.48,2.48,0,0,1,.34-.46l.26-.24a2.27,2.27,0,0,1,.57-.32,2.35,2.35,0,0,1,.89-.15l.27,0a2.63,2.63,0,0,1,.72.23,2.22,2.22,0,0,0,.73.6,2.29,2.29,0,0,0,3.07-1"/><path class="cls-1" d="M78.66,13.91a3.62,3.62,0,0,1,.22,1.8,3.32,3.32,0,0,1-.13.61,2.22,2.22,0,0,0-.47-.75,2.31,2.31,0,0,0-2.18-.65,2.22,2.22,0,0,0-.31.1,2.35,2.35,0,0,0-1.24,1.14l-.09.23a2.66,2.66,0,0,0-.11.47.17.17,0,0,1,0,.07,1.06,1.06,0,0,1,.2-.12,1.41,1.41,0,0,1,1.62.87,1.36,1.36,0,0,1,.09.48,1.38,1.38,0,0,1-.15.67,1.33,1.33,0,0,1-.35.43,1.15,1.15,0,0,1-.4.24l-.06,0a.9.9,0,0,0,0-.49l0-.09v0a.88.88,0,0,0-1.13-.5l-.19.1a.86.86,0,0,0-.14.13l0,0-.35-.16-.08-.05a3.83,3.83,0,0,1-1.29-1.23,3.48,3.48,0,0,1-.32-.64l-.09-.24a6.26,6.26,0,0,1-.72.91,6.42,6.42,0,0,1-1.15-.19,2.29,2.29,0,0,1,.1.23,3.49,3.49,0,0,1,.2.7,3.94,3.94,0,0,1,0,.77,3.52,3.52,0,0,1-.18,1,.19.19,0,0,1,0,.08c0,.12-.09.24-.15.36h0a.61.61,0,0,0-.19,0l-.21.05a.86.86,0,0,0-.41.34.88.88,0,0,0-.09.79l0,0a.36.36,0,0,0,0,.09h0a.88.88,0,0,0,.35.34l-.05,0a1.52,1.52,0,0,1-.46.1,1.71,1.71,0,0,1-.55-.09,1.36,1.36,0,0,1-.56-.39,1.24,1.24,0,0,1-.26-.43A1.42,1.42,0,0,1,68,19.33l.23,0,0,0a2.63,2.63,0,0,0-.4-.28l-.22-.1a2.29,2.29,0,0,0-1.69,0,2.75,2.75,0,0,0-.3.14,2.28,2.28,0,0,0-1.16,2,2.22,2.22,0,0,0,.15.87,3.69,3.69,0,0,1,2-6.87,6.1,6.1,0,0,1-.84-1.5A6,6,0,0,1,67,7.14a6,6,0,0,1,5.19,3.8,5.92,5.92,0,0,1,.38,1.68,3.69,3.69,0,0,1,6,1.29"/><path class="cls-1" d="M93.89,16.28a2.3,2.3,0,0,1-3,2.15,2.32,2.32,0,0,1-.36-.16v0s0,.06,0,.09h0c0,.1,0,.2,0,.29h0l0,.31a5.92,5.92,0,0,1-.91,3.58,6,6,0,0,1-2.08-2.83,7.92,7.92,0,0,1-.23-.87v0a2.52,2.52,0,0,1-.41.39,2.31,2.31,0,0,1-3.48-1,2.28,2.28,0,0,0,3.44-1.94,2,2,0,0,1,.42-.39,3,3,0,0,1,.3-.19,2.52,2.52,0,0,1,.62-.21,2.32,2.32,0,0,1,.91,0l.26.08a2.47,2.47,0,0,1,.66.35,2.17,2.17,0,0,0,.61.73,2.24,2.24,0,0,0,1.82.44,2.28,2.28,0,0,0,1.37-.82"/><path class="cls-1" d="M96,10.59a3.68,3.68,0,0,1-.11,1.81,4.17,4.17,0,0,1-.24.58,2.29,2.29,0,0,0-2.35-1.86l-.32,0a2.29,2.29,0,0,0-1.43.9,2.39,2.39,0,0,0-.13.21,2.48,2.48,0,0,0-.2.44.25.25,0,0,1,0,.07,2,2,0,0,1,.22-.09,1.42,1.42,0,0,1,1.43,1.16,1.35,1.35,0,0,1,0,.49,1.42,1.42,0,0,1-.27.63,1.22,1.22,0,0,1-.42.36,1.29,1.29,0,0,1-.44.16h-.06a.77.77,0,0,0,.12-.47.31.31,0,0,0,0-.1v0a.84.84,0,0,0-.49-.63.86.86,0,0,0-.53-.07.68.68,0,0,0-.2.07.56.56,0,0,0-.17.09l0,0L90,14.15,90,14.09a3.92,3.92,0,0,1-.69-.77,3.36,3.36,0,0,1-.35-.68,3.22,3.22,0,0,1-.2-.69,2.34,2.34,0,0,1,0-.26,5.85,5.85,0,0,1-.88.77,5.92,5.92,0,0,1-1.09-.4c0,.09,0,.17,0,.25a3.51,3.51,0,0,1,.07.72,3.31,3.31,0,0,1-.09.77,4.12,4.12,0,0,1-.36,1,.56.56,0,0,0-.05.08c-.06.11-.13.21-.2.32h0a.63.63,0,0,0-.19,0,.74.74,0,0,0-.21,0,.87.87,0,0,0-.47.26.83.83,0,0,0-.23.76v0l0,.09h0a.93.93,0,0,0,.29.41h-.06a1.49,1.49,0,0,1-.47,0,1.55,1.55,0,0,1-.52-.19,1.33,1.33,0,0,1-.48-.49,1.23,1.23,0,0,1-.18-.46A1.4,1.4,0,0,1,84.52,14h.23l0-.05a2.19,2.19,0,0,0-.34-.34,1.3,1.3,0,0,0-.2-.15,2.32,2.32,0,0,0-1.66-.33l-.32.09a2.29,2.29,0,0,0-1.5,1.7,2.36,2.36,0,0,0,0,.88,3.64,3.64,0,0,1-.43-.45,3.54,3.54,0,0,1-.76-1.65,3.64,3.64,0,0,1,.26-2.2,3.72,3.72,0,0,1,2.69-2.11,3.65,3.65,0,0,1,1.51,0,6.19,6.19,0,0,1-.55-1.62,6,6,0,0,1,2.4-6,6,6,0,0,1,4.39,4.7,5.81,5.81,0,0,1,.07,1.71,3.54,3.54,0,0,1,1.4-.57,3.68,3.68,0,0,1,3.27,1,3.64,3.64,0,0,1,1,2"/><path class="cls-1" d="M110.51,15.72a2.28,2.28,0,0,1-2.25,1.85,2.22,2.22,0,0,1-1.12-.29,1.94,1.94,0,0,1-.33-.23v.11h0c0,.1,0,.2,0,.3h0a1.73,1.73,0,0,1,0,.32,6,6,0,0,1-1.54,3.35A5.92,5.92,0,0,1,103.69,18a6.69,6.69,0,0,1-.07-.9v0a2.09,2.09,0,0,1-.47.3,2.31,2.31,0,0,1-1,.22,2.28,2.28,0,0,1-2.25-1.85,2.28,2.28,0,0,0,3,0,2.3,2.3,0,0,0,.78-1.31,3,3,0,0,1,.48-.31,2.19,2.19,0,0,1,.33-.12,2.05,2.05,0,0,1,.65-.1,2.36,2.36,0,0,1,.89.18,1.34,1.34,0,0,1,.24.12,2,2,0,0,1,.58.47,2.35,2.35,0,0,0,.47.83,2.29,2.29,0,0,0,3.21.21"/><path class="cls-1" d="M113.6,10.51a3.73,3.73,0,0,1-.44,1.76,3.64,3.64,0,0,1-.35.52,2.24,2.24,0,0,0-.17-.86,2.3,2.3,0,0,0-1.79-1.4l-.32,0a2.3,2.3,0,0,0-1.57.62l-.17.18a2.21,2.21,0,0,0-.28.4l0,.06.23,0a1.4,1.4,0,0,1,1.19,1.39,1.57,1.57,0,0,1-.08.49,1.49,1.49,0,0,1-.39.57,1.72,1.72,0,0,1-.47.28,1.49,1.49,0,0,1-.47.07h-.06a.86.86,0,0,0,.21-.44s0-.07,0-.1v0a.88.88,0,0,0-.36-.71.92.92,0,0,0-.51-.17.78.78,0,0,0-.22,0l-.17.07h0a3.57,3.57,0,0,1-.27-.28l0-.07a3.59,3.59,0,0,1-.54-.88,3.53,3.53,0,0,1-.22-.74,3.29,3.29,0,0,1-.07-.71,2.26,2.26,0,0,1,0-.26,6.79,6.79,0,0,1-1,.6,6.4,6.4,0,0,1-1-.6,2.26,2.26,0,0,1,0,.26,3.35,3.35,0,0,1-.07.71,3.53,3.53,0,0,1-.22.74,3.59,3.59,0,0,1-.54.88.18.18,0,0,1,0,.07,3.57,3.57,0,0,1-.27.28h0l-.17-.07a.78.78,0,0,0-.22,0,.92.92,0,0,0-.51.17.88.88,0,0,0-.36.71v0s0,.06,0,.1h0a.86.86,0,0,0,.21.44h-.06a1.49,1.49,0,0,1-.47-.07,1.72,1.72,0,0,1-.47-.28,1.49,1.49,0,0,1-.39-.57,1.57,1.57,0,0,1-.08-.49,1.4,1.4,0,0,1,1.19-1.39l.23,0,0-.06a2.21,2.21,0,0,0-.28-.4l-.17-.18a2.3,2.3,0,0,0-1.57-.62l-.32,0a2.3,2.3,0,0,0-1.79,1.4,2.24,2.24,0,0,0-.17.86,3.64,3.64,0,0,1-.35-.52,3.73,3.73,0,0,1-.44-1.76,3.71,3.71,0,0,1,3.7-3.7,3.62,3.62,0,0,1,1.47.31A6,6,0,0,1,105.22,0a6,6,0,0,1,3.21,7.12,3.62,3.62,0,0,1,1.47-.31,3.71,3.71,0,0,1,3.7,3.7"/><path class="cls-1" d="M127,18.22a2.29,2.29,0,0,1-2.55,1.41,2.27,2.27,0,0,1-1.05-.49,2.65,2.65,0,0,1-.29-.29v0s0,.05,0,.08h0l-.06.3h0c0,.1,0,.2-.08.3a5.94,5.94,0,0,1-2.14,3,5.93,5.93,0,0,1-.92-3.39,5.63,5.63,0,0,1,.1-.9v0a2.36,2.36,0,0,1-.52.21,2.24,2.24,0,0,1-1,0,2.28,2.28,0,0,1-1.87-2.23,2.29,2.29,0,0,0,3.91-.57,2.27,2.27,0,0,1,.53-.22,2,2,0,0,1,.35-.06,2.38,2.38,0,0,1,.65,0,2.21,2.21,0,0,1,.84.33A1.84,1.84,0,0,1,123,16a2.21,2.21,0,0,1,.48.57,2.35,2.35,0,0,0,.31.9,2.28,2.28,0,0,0,3.12.79"/><path class="cls-1" d="M130.94,13.67a3.54,3.54,0,0,1-.76,1.65,3.64,3.64,0,0,1-.43.45,2.36,2.36,0,0,0,0-.88,2.29,2.29,0,0,0-1.5-1.7l-.32-.09a2.32,2.32,0,0,0-1.66.33,1.3,1.3,0,0,0-.2.15,2.19,2.19,0,0,0-.34.34l0,.05h.23a1.4,1.4,0,0,1,.92,1.59,1.23,1.23,0,0,1-.18.46,1.41,1.41,0,0,1-.48.49,1.55,1.55,0,0,1-.52.19,1.49,1.49,0,0,1-.47,0h-.06a.93.93,0,0,0,.29-.41l0-.09v0a.83.83,0,0,0-.23-.76.87.87,0,0,0-.47-.26.74.74,0,0,0-.21,0,.63.63,0,0,0-.19,0h0c-.07-.11-.14-.21-.2-.32a.56.56,0,0,0,0-.08,4,4,0,0,1-.36-1,3.76,3.76,0,0,1-.09-.76,3.51,3.51,0,0,1,.07-.72c0-.08,0-.16,0-.25a5.92,5.92,0,0,1-1.09.4,6.4,6.4,0,0,1-.88-.76c0,.08,0,.16,0,.25a3.22,3.22,0,0,1-.2.69,3.36,3.36,0,0,1-.35.68,3.92,3.92,0,0,1-.69.77l-.07.06-.31.22,0,0a.56.56,0,0,0-.17-.09.68.68,0,0,0-.2-.07.86.86,0,0,0-.53.07.84.84,0,0,0-.49.63v0a.31.31,0,0,0,0,.1h0a.77.77,0,0,0,.12.47h-.06a1.29,1.29,0,0,1-.44-.16,1.32,1.32,0,0,1-.42-.36,1.42,1.42,0,0,1-.27-.63,1.35,1.35,0,0,1,0-.49A1.42,1.42,0,0,1,119,12.68l.22.08a.14.14,0,0,1,0-.06,2.48,2.48,0,0,0-.2-.44,2.39,2.39,0,0,0-.13-.21,2.29,2.29,0,0,0-1.43-.9l-.32,0A2.29,2.29,0,0,0,114.81,13a4.17,4.17,0,0,1-.24-.58,3.68,3.68,0,0,1-.11-1.81,3.64,3.64,0,0,1,1-2,3.68,3.68,0,0,1,3.27-1,3.54,3.54,0,0,1,1.4.57,5.81,5.81,0,0,1,.07-1.71,6,6,0,0,1,4.39-4.7,6,6,0,0,1,2.4,6,5.85,5.85,0,0,1-.55,1.62,3.65,3.65,0,0,1,1.51,0,3.72,3.72,0,0,1,2.69,2.11,3.64,3.64,0,0,1,.26,2.2"/><path class="cls-1" d="M142.64,23.71a2.27,2.27,0,0,1-2.76.91,2.16,2.16,0,0,1-.94-.68,1.94,1.94,0,0,1-.23-.33v0l0,.07h0l-.12.28h0c-.05.1-.1.19-.14.28a6,6,0,0,1-2.66,2.57,6,6,0,0,1-.28-3.5,5.31,5.31,0,0,1,.26-.86v0a2.07,2.07,0,0,1-.55.11,2.32,2.32,0,0,1-1-.15,2.3,2.3,0,0,1-1.42-2.54,2.31,2.31,0,0,0,2.75,1.1,2.32,2.32,0,0,0,1.2-.94,2.14,2.14,0,0,1,.56-.11h.35a2,2,0,0,1,.64.14,2.36,2.36,0,0,1,.77.49l.18.2a2.2,2.2,0,0,1,.37.65,2.31,2.31,0,0,0,.14.94,2.25,2.25,0,0,0,1.32,1.33,2.29,2.29,0,0,0,1.59,0"/><path class="cls-1" d="M147.41,20a3.8,3.8,0,0,1-1.56,1.84,2.22,2.22,0,0,0,.15-.87,2.28,2.28,0,0,0-1.16-2l-.3-.14a2.29,2.29,0,0,0-1.69,0l-.22.1a2.63,2.63,0,0,0-.4.28l0,0,.23,0a1.42,1.42,0,0,1,.61,1.73,1.24,1.24,0,0,1-.26.43,1.36,1.36,0,0,1-.56.39,1.71,1.71,0,0,1-.55.09,1.52,1.52,0,0,1-.46-.1l-.05,0a.88.88,0,0,0,.35-.34.36.36,0,0,0,0-.09l0,0a.88.88,0,0,0-.09-.79.86.86,0,0,0-.41-.34l-.21-.05a.61.61,0,0,0-.19,0h0c-.06-.12-.1-.24-.15-.36a.19.19,0,0,1,0-.08,3.52,3.52,0,0,1-.18-1,3.94,3.94,0,0,1,0-.77,3.49,3.49,0,0,1,.2-.7,2.29,2.29,0,0,1,.1-.23,6.42,6.42,0,0,1-1.15.19,6.26,6.26,0,0,1-.72-.91l-.09.24a3,3,0,0,1-.32.64,3.83,3.83,0,0,1-1.29,1.23l-.08.05-.35.16,0,0a.86.86,0,0,0-.14-.13l-.19-.1a.88.88,0,0,0-1.13.5v0l0,.09h0a.9.9,0,0,0,0,.49l-.06,0a1.15,1.15,0,0,1-.4-.24,1.33,1.33,0,0,1-.35-.43,1.38,1.38,0,0,1-.15-.67,1.36,1.36,0,0,1,.09-.48,1.41,1.41,0,0,1,1.62-.87,1.06,1.06,0,0,1,.2.12.2.2,0,0,1,0-.07,2.66,2.66,0,0,0-.11-.47l-.09-.23A2.35,2.35,0,0,0,134.64,15a2.22,2.22,0,0,0-.31-.1,2.31,2.31,0,0,0-2.18.65,2.22,2.22,0,0,0-.47.75,4.42,4.42,0,0,1-.13-.61,3.69,3.69,0,0,1,5-3.91,3.66,3.66,0,0,1,1.27.82,5.92,5.92,0,0,1,.38-1.68,6,6,0,0,1,5.19-3.8,6,6,0,0,1,1.26,6.3,6.1,6.1,0,0,1-.84,1.5,3.7,3.7,0,0,1,3.6,5"/><path class="cls-1" d="M157.07,32a2.29,2.29,0,0,1-2.89.39,2.22,2.22,0,0,1-.8-.84,2.43,2.43,0,0,1-.16-.37l0,0a.43.43,0,0,0,0,.07h0l-.17.25h0l-.19.25a5.94,5.94,0,0,1-3.08,2,6,6,0,0,1,.37-3.49,6.8,6.8,0,0,1,.42-.8v0a2.09,2.09,0,0,1-.56,0,2.12,2.12,0,0,1-.95-.33,2.26,2.26,0,0,1-.93-2.75,2.27,2.27,0,0,0,1,1.26,2.34,2.34,0,0,0,1.53.32,2.36,2.36,0,0,0,1.35-.7,2.17,2.17,0,0,1,.57,0l.35.06a2.46,2.46,0,0,1,.6.27,2.15,2.15,0,0,1,.66.61c.05.08.1.15.14.23a2.5,2.5,0,0,1,.25.71,2.34,2.34,0,0,0,0,.95A2.3,2.3,0,0,0,157.07,32"/><path class="cls-1" d="M162.44,29.18a3.81,3.81,0,0,1-1.3,1.26,4.8,4.8,0,0,1-.57.26,2.33,2.33,0,0,0,.31-.83,2.28,2.28,0,0,0-.79-2.12,1.85,1.85,0,0,0-.27-.19,2.28,2.28,0,0,0-1.66-.3l-.24.07a1.89,1.89,0,0,0-.44.19l0,0,.21.09a1.41,1.41,0,0,1,.28,1.81,1.31,1.31,0,0,1-.33.37,1.38,1.38,0,0,1-.63.28,1.45,1.45,0,0,1-.55,0,1.63,1.63,0,0,1-.43-.18l0,0a.92.92,0,0,0,.41-.27l.06-.08v0a.86.86,0,0,0,.07-.79.87.87,0,0,0-.35-.41.82.82,0,0,0-.19-.09l-.19,0h0c0-.13-.06-.25-.08-.38s0-.06,0-.09a3.87,3.87,0,0,1,0-1,3.19,3.19,0,0,1,.2-.75,3.15,3.15,0,0,1,.31-.64l.14-.22a5.64,5.64,0,0,1-1.16,0,6.73,6.73,0,0,1-.54-1,2.53,2.53,0,0,1-.13.22,3,3,0,0,1-.43.57,3.64,3.64,0,0,1-1.5,1l-.08,0-.37.09,0,0a.44.44,0,0,0-.12-.15,1.07,1.07,0,0,0-.16-.14.83.83,0,0,0-.52-.12.87.87,0,0,0-.69.41v0l-.05.09h0a.92.92,0,0,0,0,.49l-.06,0a1.73,1.73,0,0,1-.35-.31,1.54,1.54,0,0,1-.26-.49,1.56,1.56,0,0,1,0-.68,1.72,1.72,0,0,1,.19-.47A1.41,1.41,0,0,1,151.7,24l.17.15v-.06a2.5,2.5,0,0,0,0-.48,1.84,1.84,0,0,0,0-.25,2.29,2.29,0,0,0-1-1.35,2.69,2.69,0,0,0-.29-.16,2.27,2.27,0,0,0-2.25.25,2.3,2.3,0,0,0-.6.64,3.19,3.19,0,0,1,0-.62,3.56,3.56,0,0,1,.55-1.73,3.7,3.7,0,0,1,5.09-1.2,3.74,3.74,0,0,1,1.09,1,6.06,6.06,0,0,1,.69-1.57,6,6,0,0,1,5.79-2.79,6,6,0,0,1,.08,6.43,5.84,5.84,0,0,1-1.1,1.31,3.65,3.65,0,0,1,1.42.52A3.69,3.69,0,0,1,163,27a3.74,3.74,0,0,1-.55,2.16"/><path class="cls-1" d="M169.72,42.76a2.29,2.29,0,0,1-3.54-1.12,2.74,2.74,0,0,1-.09-.39l0,0,0,.06h0l-.22.22h0l-.24.21a5.9,5.9,0,0,1-3.4,1.43,6,6,0,0,1,1-3.36,5.46,5.46,0,0,1,.56-.71l0,0a2.75,2.75,0,0,1-.56-.1,2.32,2.32,0,0,1-.87-.5,2.29,2.29,0,0,1-.41-2.88,2.28,2.28,0,0,0,2.17,2,2.2,2.2,0,0,0,1.45-.44,2.32,2.32,0,0,1,.9.23,2.08,2.08,0,0,1,.54.37,2.47,2.47,0,0,1,.54.72c0,.09.07.17.09.25a2.36,2.36,0,0,1,.12.75,2.14,2.14,0,0,0-.21.93,2.28,2.28,0,0,0,2.22,2.31"/><path class="cls-1" d="M175.52,41A3.64,3.64,0,0,1,174,42a3.43,3.43,0,0,1-.61.16,2.38,2.38,0,0,0,.46-.76,2.29,2.29,0,0,0-.39-2.23l-.22-.24a2.28,2.28,0,0,0-1.58-.59h-.25a2.47,2.47,0,0,0-.47.11l-.06,0a1.06,1.06,0,0,1,.2.12,1.42,1.42,0,0,1-.06,1.83,1.49,1.49,0,0,1-.4.31,1.36,1.36,0,0,1-.66.15,1.44,1.44,0,0,1-.94-.36l0-.05a.79.79,0,0,0,.45-.19l.08-.06,0,0a.88.88,0,0,0,.2-.77.82.82,0,0,0-.26-.47.66.66,0,0,0-.17-.12.67.67,0,0,0-.18-.07h0c0-.13,0-.26,0-.38a.34.34,0,0,1,0-.1,3.42,3.42,0,0,1,.2-1,3.19,3.19,0,0,1,.33-.7,3.77,3.77,0,0,1,.43-.58l.17-.18a5.79,5.79,0,0,1-1.14-.24,6.19,6.19,0,0,1-.34-1.11l-.16.2a4.69,4.69,0,0,1-.53.48,4.5,4.5,0,0,1-.67.39,3.87,3.87,0,0,1-1,.29h-.09a2.34,2.34,0,0,1-.38,0v0a.7.7,0,0,0-.09-.17,1,1,0,0,0-.14-.16.85.85,0,0,0-.48-.22.87.87,0,0,0-.75.28l0,0-.06.08h0a1,1,0,0,0-.15.47l0,0a1.28,1.28,0,0,1-.29-.37,1.21,1.21,0,0,1-.16-.53,1.29,1.29,0,0,1,.09-.67,1.26,1.26,0,0,1,.27-.42,1.4,1.4,0,0,1,1.82-.23l.14.18a.14.14,0,0,1,0-.06,2.63,2.63,0,0,0,.06-.48v-.25a2.27,2.27,0,0,0-.74-1.51,1.71,1.71,0,0,0-.26-.21,2.29,2.29,0,0,0-2.26-.17,2.36,2.36,0,0,0-.71.52,3.47,3.47,0,0,1,.1-.62,3.74,3.74,0,0,1,.85-1.59A3.65,3.65,0,0,1,165,28.58a3.7,3.7,0,0,1,3.31.87,3.87,3.87,0,0,1,.88,1.23,6.12,6.12,0,0,1,1-1.42,6,6,0,0,1,6.21-1.68,6,6,0,0,1-1.1,6.33A5.89,5.89,0,0,1,174,35a3.76,3.76,0,0,1,1.3.77A3.71,3.71,0,0,1,176.45,39a3.62,3.62,0,0,1-.93,2"/><path class="cls-1" d="M180.18,55.69a2.29,2.29,0,0,1-2.83-.68,2.26,2.26,0,0,1-.44-1.08,2.61,2.61,0,0,1,0-.4l0,0-.07.05h0a2.2,2.2,0,0,1-.25.17h0l-.27.16a6,6,0,0,1-3.61.79,5.86,5.86,0,0,1,1.6-3.12A5.51,5.51,0,0,1,175,51l0,0a2.28,2.28,0,0,1-1.17-3.75,2.29,2.29,0,0,0,3.28,2.21,2.14,2.14,0,0,1,.53.2,1.17,1.17,0,0,1,.3.19,2,2,0,0,1,.47.46,2.17,2.17,0,0,1,.39.81c0,.09,0,.18,0,.26a2.15,2.15,0,0,1,0,.76,2.19,2.19,0,0,0-.38.87,2.3,2.3,0,0,0,1.76,2.69"/><path class="cls-1" d="M186.2,55a3.58,3.58,0,0,1-1.67.71,4.21,4.21,0,0,1-.62,0,2.28,2.28,0,0,0,.62-2.93,2.11,2.11,0,0,0-.18-.27,2.28,2.28,0,0,0-1.44-.88l-.25,0a1.93,1.93,0,0,0-.48,0h-.06l.17.15a1.42,1.42,0,0,1-.4,1.8,1.22,1.22,0,0,1-.44.22,1.43,1.43,0,0,1-.68,0,1.53,1.53,0,0,1-.51-.21,1.56,1.56,0,0,1-.35-.33l0,0a.82.82,0,0,0,.48-.1l.08-.05,0,0a.91.91,0,0,0,.35-.72,1,1,0,0,0-.18-.5.75.75,0,0,0-.15-.16l-.16-.1h0c0-.13,0-.26.07-.38a.29.29,0,0,1,0-.09,3.7,3.7,0,0,1,.38-1,3.59,3.59,0,0,1,.45-.63,3.54,3.54,0,0,1,.53-.49L182,49a5.61,5.61,0,0,1-1.08-.45,6.33,6.33,0,0,1-.13-1.15l-.2.16a3.2,3.2,0,0,1-.61.37,3.31,3.31,0,0,1-.72.27,3.6,3.6,0,0,1-1,.1h-.09l-.38,0v0a.59.59,0,0,0-.05-.19.87.87,0,0,0-.11-.18.87.87,0,0,0-1.22-.17l0,0-.08.06h0a1,1,0,0,0-.23.44l0,0a1.21,1.21,0,0,1-.22-.42,1.41,1.41,0,0,1-.07-.54,1.52,1.52,0,0,1,.22-.65,1.48,1.48,0,0,1,.34-.37,1.43,1.43,0,0,1,1.84.12l.1.2,0-.06a4,4,0,0,0,.15-.45c0-.09,0-.17,0-.25a2.28,2.28,0,0,0-.45-1.63,1.64,1.64,0,0,0-.21-.24,2.29,2.29,0,0,0-2.19-.59,2.35,2.35,0,0,0-.8.38A3.19,3.19,0,0,1,175,43a3.68,3.68,0,0,1,1.14-1.41,3.59,3.59,0,0,1,2.09-.74,3.65,3.65,0,0,1,3.08,1.46,3.75,3.75,0,0,1,.65,1.37,5.83,5.83,0,0,1,1.21-1.22,6,6,0,0,1,6.41-.51,6,6,0,0,1-2.25,6,5.54,5.54,0,0,1-1.5.83,3.73,3.73,0,0,1,1.14,1,3.69,3.69,0,0,1,.56,3.36A3.61,3.61,0,0,1,186.2,55"/><path class="cls-1" d="M188.09,70.31a2.29,2.29,0,0,1-2.66-1.18,2.32,2.32,0,0,1-.24-1.14,2.57,2.57,0,0,1,.06-.4h0l-.07,0h0l-.27.12h0l-.29.11a5.91,5.91,0,0,1-3.69.11A5.94,5.94,0,0,1,183,65.22a5,5,0,0,1,.78-.47h0a2,2,0,0,1-.48-.29,2.24,2.24,0,0,1-.64-.78,2.31,2.31,0,0,1,.66-2.84,2.32,2.32,0,0,0,.17,1.59,2.27,2.27,0,0,0,2.64,1.19,2.64,2.64,0,0,1,.49.29l.26.24a2.15,2.15,0,0,1,.38.55,2.09,2.09,0,0,1,.23.87,1.94,1.94,0,0,1-.16,1,2.24,2.24,0,0,0-.53.79,2.27,2.27,0,0,0,.08,1.87,2.24,2.24,0,0,0,1.16,1.09"/><path class="cls-1" d="M194.13,70.76a3.7,3.7,0,0,1-1.77.38,3.18,3.18,0,0,1-.62-.07,2.34,2.34,0,0,0,.7-.54,2.29,2.29,0,0,0,.45-2.22,2.88,2.88,0,0,0-.13-.31,2.28,2.28,0,0,0-1.25-1.12l-.24-.07a2,2,0,0,0-.48-.07h-.06l.13.18a1.41,1.41,0,0,1-.71,1.69,1.25,1.25,0,0,1-.48.14,1.33,1.33,0,0,1-.68-.09,1.41,1.41,0,0,1-.46-.3,1.78,1.78,0,0,1-.28-.38s0,0,0-.06a.82.82,0,0,0,.49,0l.09,0h0a.86.86,0,0,0,.47-.64.83.83,0,0,0-.08-.53.94.94,0,0,0-.12-.18.58.58,0,0,0-.14-.13l0,0c0-.12.08-.24.13-.36a.2.2,0,0,0,0-.08,4,4,0,0,1,.55-.87,4,4,0,0,1,.56-.53,4.17,4.17,0,0,1,.61-.38l.23-.11a5.43,5.43,0,0,1-1-.63,5.62,5.62,0,0,1,.09-1.16l-.23.12a3.44,3.44,0,0,1-.67.26,3.34,3.34,0,0,1-.76.12,3.46,3.46,0,0,1-1-.08l-.09,0-.37-.11v0a1.11,1.11,0,0,0,0-.19.68.68,0,0,0-.07-.2,1,1,0,0,0-.38-.39.88.88,0,0,0-.79,0l0,0-.08.05h0a.87.87,0,0,0-.31.38l0,0a1.22,1.22,0,0,1-.13-.45,1.46,1.46,0,0,1,0-.55,1.44,1.44,0,0,1,.34-.6,1.33,1.33,0,0,1,.4-.29,1.41,1.41,0,0,1,1.78.44c0,.08.05.15.06.22a.1.1,0,0,0,0-.05,2.13,2.13,0,0,0,.23-.42.92.92,0,0,0,.09-.23A2.29,2.29,0,0,0,188,58.5a1.89,1.89,0,0,0-.17-.28,2.29,2.29,0,0,0-2-1,2.36,2.36,0,0,0-.85.24,2.9,2.9,0,0,1,.31-.54,3.72,3.72,0,0,1,1.38-1.19A3.72,3.72,0,0,1,192,58.87a5.64,5.64,0,0,1,1.41-1,6,6,0,0,1,6.39.68,6,6,0,0,1-3.31,5.51,6.24,6.24,0,0,1-1.63.54,3.51,3.51,0,0,1,.93,1.18,3.69,3.69,0,0,1-1.66,5"/><path class="cls-1" d="M193.18,86.14a2.28,2.28,0,0,1-2.4-1.65,2.18,2.18,0,0,1,0-1.16,2.4,2.4,0,0,1,.12-.38h0l-.08,0h0l-.3.07h0l-.31.06a6.06,6.06,0,0,1-3.65-.57,5.93,5.93,0,0,1,2.63-2.34,6,6,0,0,1,.84-.31h0a2.42,2.42,0,0,1-.42-.37,2.36,2.36,0,0,1-.48-.88A2.28,2.28,0,0,1,190.28,76a2.33,2.33,0,0,0-.13,1.59,2.27,2.27,0,0,0,.91,1.26,2.23,2.23,0,0,0,1.47.39,2.6,2.6,0,0,1,.43.38,1.94,1.94,0,0,1,.21.29,2,2,0,0,1,.27.6,2.12,2.12,0,0,1,.07.9,1.19,1.19,0,0,1,0,.26,2.35,2.35,0,0,1-.29.69,2.29,2.29,0,0,0-.94,2.54,2.26,2.26,0,0,0,1,1.28"/><path class="cls-1" d="M199,87.69a3.71,3.71,0,0,1-1.81.06,4.18,4.18,0,0,1-.6-.19,2.38,2.38,0,0,0,.79-.41,2.29,2.29,0,0,0,.85-2.1,2.06,2.06,0,0,0-.07-.32,2.25,2.25,0,0,0-1-1.34,1.51,1.51,0,0,0-.22-.11,1.7,1.7,0,0,0-.45-.15l-.07,0a2.12,2.12,0,0,1,.11.21,1.42,1.42,0,0,1-1,1.53,1.39,1.39,0,0,1-.49.05,1.33,1.33,0,0,1-.65-.22,1.12,1.12,0,0,1-.4-.38,1.5,1.5,0,0,1-.21-.42s0,0,0-.06a.91.91,0,0,0,.49.08l.09,0h0a.87.87,0,0,0,.58-.54.9.9,0,0,0,0-.54,1.08,1.08,0,0,0-.08-.19.91.91,0,0,0-.11-.16l0,0c.06-.11.12-.22.19-.33A.35.35,0,0,0,195,82a4.15,4.15,0,0,1,.7-.75,4,4,0,0,1,.65-.42,4.44,4.44,0,0,1,.67-.26l.25-.06a6.44,6.44,0,0,1-.85-.8,7,7,0,0,1,.3-1.13l-.24.08a3.54,3.54,0,0,1-.71.13,3.75,3.75,0,0,1-1.76-.29l-.09,0-.33-.17v0a.61.61,0,0,0,0-.19.76.76,0,0,0,0-.21.84.84,0,0,0-.3-.45.86.86,0,0,0-.78-.15h0l-.09,0h0a.88.88,0,0,0-.37.32s0,0,0-.06a1.4,1.4,0,0,1,.53-1.52,1.4,1.4,0,0,1,2.11.55,1.64,1.64,0,0,1,0,.22.1.1,0,0,0,.05,0,2.17,2.17,0,0,0,.31-.37,2.39,2.39,0,0,0,.13-.21,2.31,2.31,0,0,0,.17-1.68,2.83,2.83,0,0,0-.11-.31,2.31,2.31,0,0,0-1.84-1.34,2.42,2.42,0,0,0-.88.07,3.73,3.73,0,0,1,.41-.47,3.7,3.7,0,0,1,3.79-.85,3.7,3.7,0,0,1,2.46,4,6,6,0,0,1,7.73,1.14,6,6,0,0,1-4.27,4.81,6.27,6.27,0,0,1-1.7.23,3.85,3.85,0,0,1,.7,1.33,3.72,3.72,0,0,1-.69,3.35A3.63,3.63,0,0,1,199,87.69"/><path class="cls-1" d="M195.27,102.64a2.31,2.31,0,0,1-2.06-2.07,2.47,2.47,0,0,1,.19-1.15,3.12,3.12,0,0,1,.2-.35h-.11l-.3,0h-.33a5.93,5.93,0,0,1-3.48-1.23,5.94,5.94,0,0,1,3-1.81,5.17,5.17,0,0,1,.89-.15h0a2.12,2.12,0,0,1-.35-.44,2.22,2.22,0,0,1-.31-1,2.28,2.28,0,0,1,1.64-2.4,2.28,2.28,0,0,0-.42,1.54,2.27,2.27,0,0,0,2,2.06,2.25,2.25,0,0,1,.35.45,3.18,3.18,0,0,1,.16.32,2.22,2.22,0,0,1,.15.64,2.27,2.27,0,0,1-.1.9,1.52,1.52,0,0,1-.09.25,2.42,2.42,0,0,1-.42.62,2.26,2.26,0,0,0-.78.55,2.27,2.27,0,0,0,.09,3.21"/><path class="cls-1" d="M200.74,105.24A3.7,3.7,0,0,1,199,105a5,5,0,0,1-.56-.3,2.4,2.4,0,0,0,.85-.25,2.27,2.27,0,0,0,1.22-1.91,1.82,1.82,0,0,0,0-.33,2.31,2.31,0,0,0-.77-1.5,1.25,1.25,0,0,0-.19-.15,2.25,2.25,0,0,0-.42-.24l-.06,0,.06.22a1.42,1.42,0,0,1-1.28,1.32,1.4,1.4,0,0,1-.5,0,1.41,1.41,0,0,1-.92-.77,1.73,1.73,0,0,1-.12-.46v-.06a.83.83,0,0,0,.46.17h.13a.86.86,0,0,0,.67-.42.89.89,0,0,0,.12-.53.65.65,0,0,0,0-.2,1,1,0,0,0-.08-.18v0a2.26,2.26,0,0,1,.25-.29l.06-.07a3.86,3.86,0,0,1,.83-.61,3.41,3.41,0,0,1,.71-.29,3.3,3.3,0,0,1,.71-.13l.25,0a7,7,0,0,1-.68-.94,6,6,0,0,1,.5-1.06l-.26,0a3.36,3.36,0,0,1-.71,0,3.79,3.79,0,0,1-.76-.15,3.74,3.74,0,0,1-.92-.45l-.08-.05-.3-.24v0a1.21,1.21,0,0,0,0-.18,1.55,1.55,0,0,0,0-.22.85.85,0,0,0-.22-.49.88.88,0,0,0-.73-.3h0l-.1,0h0a.88.88,0,0,0-.43.24V94a1.23,1.23,0,0,1,0-.47,1.4,1.4,0,0,1,.24-.49,1.36,1.36,0,0,1,1-.57,1.39,1.39,0,0,1,1.5,1.06,1.79,1.79,0,0,1,0,.23l.06,0a2.64,2.64,0,0,0,.37-.31l.16-.18a2.31,2.31,0,0,0,.48-1.62,1.65,1.65,0,0,0-.06-.32,2.3,2.3,0,0,0-1.55-1.66,2.34,2.34,0,0,0-.88-.09,4.66,4.66,0,0,1,.49-.39,3.62,3.62,0,0,1,1.71-.6,3.56,3.56,0,0,1,2.17.47,3.66,3.66,0,0,1,1.85,2.87,3.58,3.58,0,0,1-.17,1.5,5.75,5.75,0,0,1,1.67-.4,6,6,0,0,1,5.72,2.94,6,6,0,0,1-5.08,3.94,6.07,6.07,0,0,1-1.71-.09,3.84,3.84,0,0,1,.44,1.44,3.72,3.72,0,0,1-1.29,3.17,3.79,3.79,0,0,1-2,.86"/><path class="cls-1" d="M194.29,119.24a2.3,2.3,0,0,1-1.64-2.41,2.25,2.25,0,0,1,.4-1.09,1.94,1.94,0,0,1,.26-.31h-.11l-.3,0h0l-.3-.06a5.94,5.94,0,0,1-3.2-1.86,6,6,0,0,1,3.29-1.22,6.76,6.76,0,0,1,.9,0h0a2.65,2.65,0,0,1-.26-.5,2.38,2.38,0,0,1-.13-1,2.31,2.31,0,0,1,2.06-2.07,2.3,2.3,0,0,0-.7,1.44,2.3,2.3,0,0,0,1.62,2.4,2.49,2.49,0,0,1,.27.51,2.14,2.14,0,0,1,.09.34,2.4,2.4,0,0,1,0,.66,2.27,2.27,0,0,1-.26.86,1.76,1.76,0,0,1-.14.23,2.26,2.26,0,0,1-.53.54,2.24,2.24,0,0,0-.86.39,2.28,2.28,0,0,0-.51,3.18"/><path class="cls-1" d="M199.19,122.8a3.74,3.74,0,0,1-1.71-.61,3.65,3.65,0,0,1-.49-.39,2.34,2.34,0,0,0,.88-.09,2.29,2.29,0,0,0,1.55-1.65,1.91,1.91,0,0,0,.06-.33,2.31,2.31,0,0,0-.48-1.62l-.16-.18a2.64,2.64,0,0,0-.37-.31l-.06,0a1.64,1.64,0,0,1,0,.22,1.39,1.39,0,0,1-1.5,1.06,1.32,1.32,0,0,1-.48-.13,1.37,1.37,0,0,1-.52-.43,1.54,1.54,0,0,1-.24-.5,1.23,1.23,0,0,1,0-.47v-.06a.89.89,0,0,0,.43.25h.13a.88.88,0,0,0,.73-.3.85.85,0,0,0,.22-.49,1.41,1.41,0,0,0,0-.21,1.05,1.05,0,0,0,0-.19v0l.3-.23.08-.06a3.39,3.39,0,0,1,.92-.44,3.21,3.21,0,0,1,.76-.16,3.36,3.36,0,0,1,.71,0l.26,0a6,6,0,0,1-.5-1.06,7,7,0,0,1,.68-.94h-.25a4.06,4.06,0,0,1-.71-.14,3.41,3.41,0,0,1-.71-.29,3.86,3.86,0,0,1-.83-.61l-.06-.07a2.18,2.18,0,0,1-.25-.28v0a.89.89,0,0,0,.08-.17.8.8,0,0,0,0-.21.84.84,0,0,0-.12-.52.87.87,0,0,0-.67-.43h-.13a.76.76,0,0,0-.46.16v-.06a1.66,1.66,0,0,1,.12-.45,1.47,1.47,0,0,1,.32-.45,1.42,1.42,0,0,1,.6-.33,1.2,1.2,0,0,1,.5,0,1.4,1.4,0,0,1,1.28,1.31l-.06.22.06,0a2.91,2.91,0,0,0,.42-.23l.19-.16a2.31,2.31,0,0,0,.77-1.5,1.82,1.82,0,0,0,0-.33,2.27,2.27,0,0,0-1.22-1.91,2.4,2.4,0,0,0-.85-.25,3.71,3.71,0,0,1,.56-.29,3.58,3.58,0,0,1,1.79-.28,3.64,3.64,0,0,1,2,.86,3.72,3.72,0,0,1,1.29,3.16,3.84,3.84,0,0,1-.44,1.44,6.07,6.07,0,0,1,1.71-.09,6,6,0,0,1,5.08,4,6,6,0,0,1-5.72,2.94A6.47,6.47,0,0,1,203,118a3.57,3.57,0,0,1,.17,1.5,3.7,3.7,0,0,1-4,3.34"/><path class="cls-1" d="M190.28,135.37a2.3,2.3,0,0,1-.58-3.67,2.42,2.42,0,0,1,.31-.25h0l-.07,0h0l-.29-.1h0l-.3-.11a6,6,0,0,1-2.8-2.41,5.94,5.94,0,0,1,3.46-.6,4.68,4.68,0,0,1,.89.18h0a2.76,2.76,0,0,1-.16-.54,2.32,2.32,0,0,1,.06-1,2.28,2.28,0,0,1,2.4-1.65,2.28,2.28,0,0,0,.2,3.94,2.19,2.19,0,0,1,.17.55,2.07,2.07,0,0,1,0,.35,2.5,2.5,0,0,1-.09.66,2.25,2.25,0,0,1-.41.8l-.18.2a2.33,2.33,0,0,1-.61.43,2.31,2.31,0,0,0-2.14,1.66,2.33,2.33,0,0,0,.13,1.59"/><path class="cls-1" d="M194.44,139.77a3.64,3.64,0,0,1-1.57-.91,3.73,3.73,0,0,1-.41-.47,2.46,2.46,0,0,0,.89.07,2.3,2.3,0,0,0,1.83-1.34c0-.1.08-.2.11-.3a2.3,2.3,0,0,0-.17-1.68,1.59,1.59,0,0,0-.13-.22,2.17,2.17,0,0,0-.31-.37l0,0,0,.23a1.4,1.4,0,0,1-1.67.76,1.22,1.22,0,0,1-.44-.22,1.38,1.38,0,0,1-.44-.52,1.42,1.42,0,0,1-.09-1s0,0,0-.06a.88.88,0,0,0,.37.32l.09,0h0a.86.86,0,0,0,.78-.16.84.84,0,0,0,.3-.45.76.76,0,0,0,0-.21.62.62,0,0,0,0-.19v0l.33-.17.09,0a3.38,3.38,0,0,1,1-.27,4,4,0,0,1,.77,0,3.54,3.54,0,0,1,.71.13l.24.08a7,7,0,0,1-.3-1.13,6.44,6.44,0,0,1,.85-.8l-.25-.06a3.87,3.87,0,0,1-.67-.26,4,4,0,0,1-.65-.42,4.15,4.15,0,0,1-.7-.75.35.35,0,0,0-.05-.08,2.59,2.59,0,0,1-.19-.33l0,0a.91.91,0,0,0,.11-.16.64.64,0,0,0,.08-.19.83.83,0,0,0,0-.54.87.87,0,0,0-.58-.54h0l-.09,0h0a.91.91,0,0,0-.49.08s0,0,0-.06A1.5,1.5,0,0,1,194,127a1.44,1.44,0,0,1,1.05-.6,1.39,1.39,0,0,1,.49,0,1.42,1.42,0,0,1,1,1.53,2.12,2.12,0,0,1-.11.21l.07,0a1.7,1.7,0,0,0,.45-.15,1.51,1.51,0,0,0,.22-.11,2.25,2.25,0,0,0,1-1.34,1.83,1.83,0,0,0,.07-.32,2.3,2.3,0,0,0-.85-2.1,2.38,2.38,0,0,0-.79-.41,4.56,4.56,0,0,1,.6-.18,3.69,3.69,0,0,1,4.36,4.62,3.85,3.85,0,0,1-.7,1.33,6.27,6.27,0,0,1,1.7.23,6,6,0,0,1,4.27,4.81,6,6,0,0,1-7.73,1.14,3.7,3.7,0,0,1-2.46,4,3.65,3.65,0,0,1-2.22.06"/><path class="cls-1" d="M183.37,150.5a2.31,2.31,0,0,1-.66-2.84,2.23,2.23,0,0,1,1.12-1.07h0l-.08,0h0l-.26-.14h0l-.27-.17a5.9,5.9,0,0,1-2.31-2.88,6,6,0,0,1,4.35.39h0a2.6,2.6,0,0,1-.06-.56,2.32,2.32,0,0,1,.24-1,2.29,2.29,0,0,1,2.66-1.18,2.24,2.24,0,0,0-1.16,1.09,2.27,2.27,0,0,0-.18,1.55,2.34,2.34,0,0,0,.82,1.28,2.6,2.6,0,0,1,.06.56,2.19,2.19,0,0,1,0,.36,2.39,2.39,0,0,1-.21.62,2.29,2.29,0,0,1-.55.71,1.84,1.84,0,0,1-.22.17,2.46,2.46,0,0,1-.68.31,2.34,2.34,0,0,0-.95.05,2.29,2.29,0,0,0-1.45,1.19,2.32,2.32,0,0,0-.17,1.59"/><path class="cls-1" d="M186.66,155.59a3.79,3.79,0,0,1-1.38-1.18,4.37,4.37,0,0,1-.32-.55,2.27,2.27,0,0,0,.86.24,2.3,2.3,0,0,0,2-1l.17-.28a2.32,2.32,0,0,0,.14-1.69,1.09,1.09,0,0,0-.09-.23,2.13,2.13,0,0,0-.23-.42.1.1,0,0,0,0-.05c0,.07,0,.14-.06.22a1.4,1.4,0,0,1-1.78.44,1.18,1.18,0,0,1-.4-.29,1.36,1.36,0,0,1-.37-1.15,1.28,1.28,0,0,1,.13-.45l0-.05a.87.87,0,0,0,.31.38l.08,0,0,0a.88.88,0,0,0,.79,0,.85.85,0,0,0,.38-.39.68.68,0,0,0,.07-.2,1.11,1.11,0,0,0,0-.19v0l.37-.11.09,0a3.84,3.84,0,0,1,1-.08,3.26,3.26,0,0,1,.76.12,4.22,4.22,0,0,1,.67.26l.23.12a5.62,5.62,0,0,1-.09-1.16,6.8,6.8,0,0,1,1-.63l-.23-.11a4.17,4.17,0,0,1-.61-.38,3.54,3.54,0,0,1-.56-.53,4,4,0,0,1-.55-.87s0,0,0-.08-.09-.24-.13-.36l0,0a.8.8,0,0,0,.13-.13.57.57,0,0,0,.12-.18.82.82,0,0,0,.08-.53.86.86,0,0,0-.47-.64h0l-.09,0h0a.91.91,0,0,0-.49,0s0,0,0-.06a1.78,1.78,0,0,1,.28-.38,1.41,1.41,0,0,1,.46-.3,1.43,1.43,0,0,1,.68-.09,1.46,1.46,0,0,1,.48.14,1.41,1.41,0,0,1,.71,1.69,1.18,1.18,0,0,1-.13.18h.06a2.63,2.63,0,0,0,.48-.06l.24-.08a2.28,2.28,0,0,0,1.25-1.12c.05-.1.09-.2.13-.3a2.31,2.31,0,0,0-.45-2.23,2.34,2.34,0,0,0-.7-.54,3.18,3.18,0,0,1,.62-.07,3.7,3.7,0,0,1,1.77.38,3.71,3.71,0,0,1,.73,6.15,5.86,5.86,0,0,1,1.63.53,6,6,0,0,1,3.31,5.52,6,6,0,0,1-6.39.67,5.88,5.88,0,0,1-1.41-1,3.71,3.71,0,0,1-5.34,3.12"/><path class="cls-1" d="M173.8,164.09a2.28,2.28,0,0,1-.12-2.9,2.18,2.18,0,0,1,.91-.72,1.71,1.71,0,0,1,.38-.13l0,0-.07,0h0l-.23-.19h0l-.23-.21a5.88,5.88,0,0,1-1.74-3.26,6.06,6.06,0,0,1,3.44.69,7,7,0,0,1,.76.49l0,0a2.09,2.09,0,0,1,.05-.56,2.18,2.18,0,0,1,.41-.92,2.28,2.28,0,0,1,2.83-.67,2.29,2.29,0,0,0-1.34.85,2.25,2.25,0,0,0-.46,1.49,2.29,2.29,0,0,0,.57,1.41,2.19,2.19,0,0,1,0,.57c0,.11-.06.23-.1.34a2.33,2.33,0,0,1-1,1.18l-.24.12a2.3,2.3,0,0,1-.73.18,2.38,2.38,0,0,0-.95-.13,2.3,2.3,0,0,0-1.64.9,2.36,2.36,0,0,0-.46,1.53"/><path class="cls-1" d="M176.1,169.7a3.68,3.68,0,0,1-1.14-1.41,3.19,3.19,0,0,1-.21-.59,2.35,2.35,0,0,0,.8.38,2.29,2.29,0,0,0,2.19-.59,1.64,1.64,0,0,0,.21-.24,2.28,2.28,0,0,0,.45-1.63,2,2,0,0,0,0-.24,3.53,3.53,0,0,0-.15-.46l0-.06-.1.21a1.44,1.44,0,0,1-1.84.11,1.33,1.33,0,0,1-.34-.37,1.48,1.48,0,0,1-.22-.65,1.44,1.44,0,0,1,.07-.54,1.21,1.21,0,0,1,.22-.42l0,0a.94.94,0,0,0,.23.44l.08.06,0,0a.89.89,0,0,0,1.33-.35,1.06,1.06,0,0,0,.06-.19v0a2.47,2.47,0,0,1,.38-.05h.09a4,4,0,0,1,1,.1,3.93,3.93,0,0,1,.72.27,3.81,3.81,0,0,1,.61.37l.2.16a6.43,6.43,0,0,1,.13-1.15,6.32,6.32,0,0,1,1.08-.45l-.21-.14a3.54,3.54,0,0,1-.53-.49,3.92,3.92,0,0,1-.45-.62,3.77,3.77,0,0,1-.38-1,.29.29,0,0,1,0-.09c0-.12-.05-.25-.07-.37l0,0,.16-.1a1.06,1.06,0,0,0,.15-.15,1,1,0,0,0,.18-.51.91.91,0,0,0-.35-.72l0,0-.08,0h0a.91.91,0,0,0-.48-.1l0-.05a1.32,1.32,0,0,1,.35-.32,1.2,1.2,0,0,1,.51-.21,1.31,1.31,0,0,1,.68,0,1.4,1.4,0,0,1,.44.22,1.42,1.42,0,0,1,.4,1.8c-.06,0-.11.11-.17.15h.06a1.94,1.94,0,0,0,.48,0l.25,0a2.28,2.28,0,0,0,1.44-.88,2.11,2.11,0,0,0,.18-.27,2.3,2.3,0,0,0,0-2.27,2.46,2.46,0,0,0-.59-.66,4.21,4.21,0,0,1,.62,0,3.72,3.72,0,0,1,3,2.52,3.71,3.71,0,0,1-.56,3.37,3.83,3.83,0,0,1-1.14,1,5.83,5.83,0,0,1,1.5.83,6,6,0,0,1,2.25,6,6,6,0,0,1-6.41-.51,5.78,5.78,0,0,1-1.21-1.21,3.69,3.69,0,0,1-5.82,2.08"/><path class="cls-1" d="M161.9,175.7a2.29,2.29,0,0,1,1.44-3.42,1.83,1.83,0,0,1,.4-.05l0,0-.06-.07h0l-.19-.23h0c-.06-.08-.13-.16-.19-.25a6,6,0,0,1-1.11-3.52,6,6,0,0,1,3.26,1.31,5.43,5.43,0,0,1,.65.62l0,0a2.55,2.55,0,0,1,.15-.54,2.24,2.24,0,0,1,.58-.83,2.28,2.28,0,0,1,2.9-.14,2.29,2.29,0,0,0-2.2,2,2.3,2.3,0,0,0,.3,1.49,2,2,0,0,1-.14.55,3.18,3.18,0,0,1-.16.32,2.59,2.59,0,0,1-.42.51,2.33,2.33,0,0,1-.78.47l-.25.07a2.11,2.11,0,0,1-.75,0,2.32,2.32,0,0,0-2.69.29,2.31,2.31,0,0,0-.73,1.42"/><path class="cls-1" d="M163.12,181.64a3.72,3.72,0,0,1-.85-1.6,3.34,3.34,0,0,1-.1-.62,2.36,2.36,0,0,0,.71.52,2.29,2.29,0,0,0,2.26-.17l.26-.2a2.32,2.32,0,0,0,.74-1.52v-.25a2.63,2.63,0,0,0-.06-.48.14.14,0,0,1,0-.06l-.14.18a1.41,1.41,0,0,1-1.82-.22,1.37,1.37,0,0,1-.27-.42,1.33,1.33,0,0,1-.09-.68,1.26,1.26,0,0,1,.16-.53,1.43,1.43,0,0,1,.29-.37l0,0a1,1,0,0,0,.15.47l.06.08,0,0a.87.87,0,0,0,.75.28.85.85,0,0,0,.48-.22.87.87,0,0,0,.23-.33v0a2.34,2.34,0,0,1,.38,0h.1a3.8,3.8,0,0,1,1,.29,4.4,4.4,0,0,1,.66.39,4.12,4.12,0,0,1,.54.49c0,.06.11.12.16.19a6.19,6.19,0,0,1,.34-1.11,5.79,5.79,0,0,1,1.14-.24l-.17-.18a3.35,3.35,0,0,1-.43-.58,3,3,0,0,1-.33-.7,3.42,3.42,0,0,1-.2-1,.28.28,0,0,1,0-.09c0-.13,0-.26,0-.39h0a.67.67,0,0,0,.18-.07.66.66,0,0,0,.17-.12.87.87,0,0,0,.06-1.23l0,0-.08-.06h0a.79.79,0,0,0-.45-.19l0,0a1.45,1.45,0,0,1,.4-.26,1.41,1.41,0,0,1,.54-.11,1.36,1.36,0,0,1,.66.15,1.49,1.49,0,0,1,.4.31,1.42,1.42,0,0,1,.06,1.83l-.2.13.06,0a2.47,2.47,0,0,0,.47.11l.25,0a2.29,2.29,0,0,0,1.58-.6,1.7,1.7,0,0,0,.22-.24,2.29,2.29,0,0,0,.39-2.23,2.5,2.5,0,0,0-.46-.76,4.57,4.57,0,0,1,.61.16,3.69,3.69,0,0,1,2.44,3,3.71,3.71,0,0,1-1.17,3.21,3.76,3.76,0,0,1-1.3.77,5.89,5.89,0,0,1,1.32,1.09,6,6,0,0,1,1.1,6.33,6,6,0,0,1-6.21-1.68,6.12,6.12,0,0,1-1-1.42,3.76,3.76,0,0,1-.88,1.23,3.72,3.72,0,0,1-5.23-.24"/><path class="cls-1" d="M148.07,184.93a2.27,2.27,0,0,1,.93-2.76,2.18,2.18,0,0,1,1.11-.34,1.76,1.76,0,0,1,.4,0v0l-.05-.07h0l-.15-.26h0c-.05-.09-.1-.19-.14-.28a6,6,0,0,1-.45-3.67,5.89,5.89,0,0,1,3,1.89,4.87,4.87,0,0,1,.53.73l0,0a2.38,2.38,0,0,1,.24-.51,2.3,2.3,0,0,1,3.61-.31,2.32,2.32,0,0,0-1.57.32,2.3,2.3,0,0,0-.94,2.74,2.38,2.38,0,0,1-.24.51,2.09,2.09,0,0,1-.22.28,2.07,2.07,0,0,1-.5.43,2.3,2.3,0,0,1-.85.31,1.24,1.24,0,0,1-.27,0,2.07,2.07,0,0,1-.74-.1,2.28,2.28,0,0,0-.84-.45,2.32,2.32,0,0,0-1.86.24,2.29,2.29,0,0,0-1,1.27"/><path class="cls-1" d="M148.18,191a3.56,3.56,0,0,1-.55-1.72,3.29,3.29,0,0,1,0-.63,2.17,2.17,0,0,0,.6.64,2.27,2.27,0,0,0,2.25.25l.29-.15a2.31,2.31,0,0,0,1-1.36,2,2,0,0,0,0-.24,2.57,2.57,0,0,0,0-.48v-.07l-.17.16a1.42,1.42,0,0,1-1.75-.56,1.79,1.79,0,0,1-.19-.46,1.6,1.6,0,0,1,0-.69,1.54,1.54,0,0,1,.26-.49,1.73,1.73,0,0,1,.35-.31l.06,0a.92.92,0,0,0,0,.49l.05.09v0a.88.88,0,0,0,1.21.28,1.07,1.07,0,0,0,.16-.14.44.44,0,0,0,.12-.15l0,0,.37.1.08,0a3.6,3.6,0,0,1,.92.46,4,4,0,0,1,.58.51,3.55,3.55,0,0,1,.43.57,2.53,2.53,0,0,1,.13.22,6.73,6.73,0,0,1,.54-1,6.44,6.44,0,0,1,1.16,0l-.14-.21a3.51,3.51,0,0,1-.31-.65,3.25,3.25,0,0,1-.2-.74,4,4,0,0,1,0-1s0-.06,0-.09.05-.25.08-.38h0l.19,0a.82.82,0,0,0,.19-.09.87.87,0,0,0,.35-.41.86.86,0,0,0-.07-.79v0l-.06-.07h0a.84.84,0,0,0-.41-.27.1.1,0,0,1,0,0,1.63,1.63,0,0,1,.43-.18,1.45,1.45,0,0,1,.55,0,1.49,1.49,0,0,1,.63.28,1.31,1.31,0,0,1,.33.37,1.42,1.42,0,0,1-.28,1.82l-.21.08,0,0a2.48,2.48,0,0,0,.44.2l.24.06a2.28,2.28,0,0,0,1.66-.3,1.31,1.31,0,0,0,.27-.19,2.28,2.28,0,0,0,.79-2.12,2.33,2.33,0,0,0-.31-.83,4.8,4.8,0,0,1,.57.26,3.81,3.81,0,0,1,1.3,1.26,3.76,3.76,0,0,1,.55,2.16,3.69,3.69,0,0,1-1.75,2.93,3.65,3.65,0,0,1-1.42.52,5.84,5.84,0,0,1,1.1,1.31,6,6,0,0,1-.08,6.43,6,6,0,0,1-5.79-2.79,6.06,6.06,0,0,1-.69-1.57,3.74,3.74,0,0,1-1.09,1,3.7,3.7,0,0,1-3.41.25,3.62,3.62,0,0,1-1.68-1.45"/><path class="cls-1" d="M132.77,191.45a2.29,2.29,0,0,1,1.43-2.54,2.18,2.18,0,0,1,1.15-.13,2.46,2.46,0,0,1,.39.09v0l0-.08h0c0-.1-.06-.19-.1-.29h0c0-.1-.06-.2-.08-.3a5.88,5.88,0,0,1,.23-3.69,6,6,0,0,1,2.56,2.4,5.62,5.62,0,0,1,.39.82v0a2.36,2.36,0,0,1,.33-.45,2.34,2.34,0,0,1,.84-.56,2.28,2.28,0,0,1,2.76.92,2.24,2.24,0,0,0-1.59,0,2.29,2.29,0,0,0-1.18,1,2.34,2.34,0,0,0-.25,1.5,2.1,2.1,0,0,1-.34.46l-.26.24a2.27,2.27,0,0,1-.57.32,2.35,2.35,0,0,1-.89.15l-.27,0a2.19,2.19,0,0,1-.71-.23,2.36,2.36,0,0,0-.74-.6,2.25,2.25,0,0,0-1.87-.1,2.28,2.28,0,0,0-1.2,1.06"/><path class="cls-1" d="M131.77,197.43a3.63,3.63,0,0,1-.22-1.8,3.25,3.25,0,0,1,.13-.62,2.22,2.22,0,0,0,.47.75,2.28,2.28,0,0,0,2.18.65l.31-.09a2.33,2.33,0,0,0,1.24-1.15l.09-.23a2.47,2.47,0,0,0,.11-.47s0,0,0-.06l-.2.12a1.43,1.43,0,0,1-1.62-.87,1.46,1.46,0,0,1-.09-.49,1.38,1.38,0,0,1,.15-.67,1.44,1.44,0,0,1,.35-.43,1.33,1.33,0,0,1,.4-.24l.06,0a.9.9,0,0,0,0,.49l0,.09v0a.88.88,0,0,0,.6.53.81.81,0,0,0,.53,0l.19-.1a.86.86,0,0,0,.14-.13l0,0a2.26,2.26,0,0,1,.35.17l.08,0a3.83,3.83,0,0,1,1.29,1.23,3.82,3.82,0,0,1,.32.64l.09.25a5.84,5.84,0,0,1,.72-.92,6.42,6.42,0,0,1,1.15.19,1.6,1.6,0,0,1-.1-.23,3.59,3.59,0,0,1-.2-.69,4,4,0,0,1,0-.77,3.53,3.53,0,0,1,.18-1,.31.31,0,0,1,0-.08c.05-.12.09-.24.15-.36h.22a.8.8,0,0,0,.21-.05.86.86,0,0,0,.41-.34.88.88,0,0,0,.09-.79l0,0a.2.2,0,0,0,0-.08h0a1,1,0,0,0-.35-.34l.05,0a1.52,1.52,0,0,1,.46-.1,1.71,1.71,0,0,1,.55.09,1.46,1.46,0,0,1,.56.39,1.34,1.34,0,0,1,.26.43,1.42,1.42,0,0,1-.61,1.73l-.23,0s0,0,0,.05a3.51,3.51,0,0,0,.4.27l.22.1a2.24,2.24,0,0,0,1.69,0,2.75,2.75,0,0,0,.3-.14,2.28,2.28,0,0,0,1.16-2,2.22,2.22,0,0,0-.15-.87,3.68,3.68,0,0,1,.51.37,3.69,3.69,0,0,1,1.19,3.69,3.7,3.7,0,0,1-3.74,2.82,5.86,5.86,0,0,1,.84,1.49,6,6,0,0,1-1.26,6.31,6,6,0,0,1-5.19-3.81,5.85,5.85,0,0,1-.38-1.67,3.81,3.81,0,0,1-1.27.82,3.71,3.71,0,0,1-4.78-2.11"/><path class="cls-1" d="M116.54,195.05a2.3,2.3,0,0,1,3-2.15,2.37,2.37,0,0,1,.36.17v0s0-.06,0-.08h0c0-.1,0-.2,0-.3h0l0-.32a5.92,5.92,0,0,1,.91-3.58,6,6,0,0,1,2.08,2.83,7.92,7.92,0,0,1,.23.87v0a2.46,2.46,0,0,1,.41-.38,2.16,2.16,0,0,1,.93-.4,2.29,2.29,0,0,1,2.55,1.41,2.25,2.25,0,0,0-1.58-.27,2.26,2.26,0,0,0-1.86,2.21,2,2,0,0,1-.42.39,2.2,2.2,0,0,1-.3.19,2.16,2.16,0,0,1-.62.21,2.32,2.32,0,0,1-.91,0l-.26-.07a2.82,2.82,0,0,1-.66-.36,2.27,2.27,0,0,0-.61-.73,2.29,2.29,0,0,0-3.19.38"/><path class="cls-1" d="M114.46,200.74a3.68,3.68,0,0,1,.11-1.81,4.17,4.17,0,0,1,.24-.58,2.28,2.28,0,0,0,.33.82,2.31,2.31,0,0,0,2,1.05l.32,0a2.29,2.29,0,0,0,1.43-.9,2.39,2.39,0,0,0,.13-.21,2.48,2.48,0,0,0,.2-.44.14.14,0,0,1,0-.06l-.22.08a1.42,1.42,0,0,1-1.43-1.15,1.4,1.4,0,0,1,0-.5,1.42,1.42,0,0,1,.27-.63,1.46,1.46,0,0,1,.42-.36,1.29,1.29,0,0,1,.44-.16h.06a.78.78,0,0,0-.12.48.28.28,0,0,0,0,.09v0a.86.86,0,0,0,.49.63.8.8,0,0,0,.53.07.66.66,0,0,0,.2-.06,1,1,0,0,0,.17-.1l0,0a3.55,3.55,0,0,1,.31.23l.07.05a4.22,4.22,0,0,1,.69.77,3.36,3.36,0,0,1,.35.68,3.22,3.22,0,0,1,.2.69,2.34,2.34,0,0,1,0,.26,5.85,5.85,0,0,1,.88-.77,5.92,5.92,0,0,1,1.09.4,2.21,2.21,0,0,1,0-.25,3.51,3.51,0,0,1-.07-.72,3.85,3.85,0,0,1,.09-.76,4,4,0,0,1,.36-1,.56.56,0,0,1,0-.08,3.62,3.62,0,0,1,.2-.33h0a.63.63,0,0,0,.19,0,.74.74,0,0,0,.21,0,.87.87,0,0,0,.48-.26.86.86,0,0,0,.22-.76v0l0-.09h0a.9.9,0,0,0-.29-.4l.06,0a1.24,1.24,0,0,1,.47,0,1.34,1.34,0,0,1,.52.18,1.41,1.41,0,0,1,.48.49,1.23,1.23,0,0,1,.18.46,1.4,1.4,0,0,1-.92,1.59h-.23a.1.1,0,0,1,0,0,2.73,2.73,0,0,0,.34.34l.2.14a2.27,2.27,0,0,0,1.66.33,1.92,1.92,0,0,0,.32-.09,2.29,2.29,0,0,0,1.5-1.69,2.42,2.42,0,0,0,0-.89,3.73,3.73,0,0,1,.93,4.31A3.71,3.71,0,0,1,128,202a3.65,3.65,0,0,1-1.51,0,5.91,5.91,0,0,1,.55,1.63,6,6,0,0,1-2.4,6,6,6,0,0,1-4.39-4.69,5.87,5.87,0,0,1-.07-1.72,3.69,3.69,0,0,1-4.67-.42,3.64,3.64,0,0,1-1-2"/><path class="cls-1" d="M99.92,195.61a2.29,2.29,0,0,1,2.25-1.85,2.33,2.33,0,0,1,1.12.29,2.75,2.75,0,0,1,.33.23v-.11h0c0-.1,0-.2,0-.3h0a1.73,1.73,0,0,1,0-.32,5.93,5.93,0,0,1,1.55-3.35,6,6,0,0,1,1.52,3.16,6.82,6.82,0,0,1,.07.9v0a2.09,2.09,0,0,1,.47-.3,2.29,2.29,0,0,1,3.23,1.63,2.33,2.33,0,0,0-1.5-.56,2.29,2.29,0,0,0-1.46.53,2.36,2.36,0,0,0-.78,1.31,2.19,2.19,0,0,1-.48.31l-.33.13a2.37,2.37,0,0,1-.65.09,2.21,2.21,0,0,1-.89-.18l-.24-.12a2.18,2.18,0,0,1-.58-.47,2.35,2.35,0,0,0-.47-.83,2.29,2.29,0,0,0-1.71-.77,2.33,2.33,0,0,0-1.5.56"/><path class="cls-1" d="M96.83,200.82a3.76,3.76,0,0,1,.44-1.76,3.64,3.64,0,0,1,.35-.52,2.27,2.27,0,0,0,2,2.26,1.72,1.72,0,0,0,.32,0,2.26,2.26,0,0,0,1.57-.62l.17-.18a2.21,2.21,0,0,0,.28-.4l0-.06-.23.05a1.41,1.41,0,0,1-1.19-1.4,1.57,1.57,0,0,1,.08-.49,1.38,1.38,0,0,1,.39-.56,1.34,1.34,0,0,1,.47-.28,1.5,1.5,0,0,1,.47-.08H102a.9.9,0,0,0-.21.45s0,.06,0,.09v0a.86.86,0,0,0,.36.71.85.85,0,0,0,.51.17.78.78,0,0,0,.22,0,.67.67,0,0,0,.18-.07h0a3.57,3.57,0,0,1,.27.28l0,.07a3.78,3.78,0,0,1,.54.88,3.53,3.53,0,0,1,.22.74,3.35,3.35,0,0,1,.07.71,2.26,2.26,0,0,1,0,.26,6.4,6.4,0,0,1,1-.6,6.79,6.79,0,0,1,1,.6,2.26,2.26,0,0,1,0-.26,3.35,3.35,0,0,1,.07-.71,3.53,3.53,0,0,1,.22-.74,3.78,3.78,0,0,1,.54-.88s0-.05.06-.07a3.45,3.45,0,0,1,.26-.28h0a.48.48,0,0,0,.18.07.66.66,0,0,0,.21,0,.85.85,0,0,0,.51-.17.86.86,0,0,0,.36-.71v0s0-.06,0-.09h0a.82.82,0,0,0-.21-.45h.06a1.5,1.5,0,0,1,.47.08,1.34,1.34,0,0,1,.47.28,1.38,1.38,0,0,1,.39.56,1.57,1.57,0,0,1,.08.49,1.41,1.41,0,0,1-1.19,1.4l-.23-.05,0,.06a2.21,2.21,0,0,0,.28.4l.17.18a2.26,2.26,0,0,0,1.57.62,1.67,1.67,0,0,0,.32,0,2.27,2.27,0,0,0,2-2.26,3.64,3.64,0,0,1,.35.52,3.76,3.76,0,0,1,.44,1.76,3.71,3.71,0,0,1-3.7,3.7,3.62,3.62,0,0,1-1.47-.31,6,6,0,0,1-3.21,7.12,6,6,0,0,1-3.22-7.12,3.62,3.62,0,0,1-1.47.31,3.71,3.71,0,0,1-3.7-3.7"/><path class="cls-1" d="M112.14,54.86q16.41,0,24.73,5Q148.3,67,148.22,81.06q0,16-10,24.46-8.67,7.37-28.35,7.45a40.87,40.87,0,0,1-5.24-.43q-3.11-2-3.1-6.23a57.72,57.72,0,0,0,7.79.45q9.45,0,13.31-5.39t3.86-17.61q0-22.7-19.37-22.69-5.9,0-7.6,2.76t-1.7,11v62.37a31.87,31.87,0,0,0,.72,7.5,6.89,6.89,0,0,0,2.65,4.21,10.33,10.33,0,0,0,3.78,1.7,39,39,0,0,0,5.71.53,3.13,3.13,0,0,1,1.1,2.65,2.89,2.89,0,0,1-1.1,2.65q-12.4-.3-23.53-.31-11.49,0-23.9.31a3.08,3.08,0,0,1-1.06-2.69,2.88,2.88,0,0,1,1.06-2.61,40.27,40.27,0,0,0,5.75-.53,10.42,10.42,0,0,0,3.82-1.7,6.79,6.79,0,0,0,2.61-4.17,33.77,33.77,0,0,0,.68-7.54V75a33.88,33.88,0,0,0-.68-7.5,6.8,6.8,0,0,0-2.61-4.21,10.45,10.45,0,0,0-3.79-1.7,39.42,39.42,0,0,0-5.78-.53,3,3,0,0,1-1.06-2.65,2.61,2.61,0,0,1,1.06-2.5q3.09,0,24.43-.53T112.14,54.86Z"/></g></g></svg>